<svg xmlns="http://www.w3.org/2000/svg" version="1.1" xmlns:xlink="http://www.w3.org/1999/xlink" xmlns:svgjs="http://svgjs.dev/svgjs" viewBox="0 0 800 800" opacity="1"><defs><linearGradient x1="50%" y1="0%" x2="50%" y2="100%" id="gggyrate-grad"><stop stop-color="hsl(206, 75%, 49%)" stop-opacity="1" offset="0%"></stop><stop stop-color="hsl(331, 90%, 56%)" stop-opacity="1" offset="100%"></stop></linearGradient></defs><g stroke-width="2" stroke="url(#gggyrate-grad)" fill="none"><path d="M370.9785364172309 -18.567382277189495C388.9369991979711 -28.93383816807571 411.06293976687266 -28.93383816807571 429.02140254761287 -18.564480133882967L747.9785605072877 165.58521909467322C765.9370232880278 175.9516749855594 776.9999935724786 195.11452723850505 776.9999935724786 215.85034116358406V584.1497396206964C776.9999935724786 604.8855535457755 765.9370232880278 624.0484057987211 747.9785605072877 634.4177638329138L429.02140254761287 818.5674630614699C411.06293976687266 828.9339189523562 388.9369991979711 828.9339189523562 370.9785364172309 818.5645609181634L52.021378457556125 634.4148616896073C34.062915676815976 624.0484057987211 22.999945392365134 604.8855535457755 22.999945392365134 584.1497396206964V215.85034116358406C22.999945392365134 195.11452723850505 34.062915676815976 175.9516749855594 52.021378457556125 165.58231695136675L370.9785364172309 -18.567382277189495Z " transform="rotate(403, 400, 400)" opacity="0.88"></path><path d="M372.0948064164329 -2.4686796469745786C389.36255909022157 -12.436425695903637 410.6375019449347 -12.436425695903637 427.90525461872335 -2.4658891245644554L734.5948295799491 174.6011293644318C751.8625822537376 184.56887541336096 762.5000536810942 202.99469488734707 762.5000536810942 222.93297750761542V577.067014485608C762.5000536810942 597.0052971058764 751.8625822537376 615.4311165798625 734.5948295799491 625.4016531512017L427.90525461872335 802.468671640198C410.6375019449347 812.4364176891268 389.36255909022157 812.4364176891268 372.0948064164329 802.4658811177878L65.40523145520717 625.3988626287916C48.13747878141862 615.4311165798625 37.50000735406206 597.0052971058764 37.50000735406206 577.067014485608V222.93297750761542C37.50000735406206 202.99469488734707 48.13747878141862 184.56887541336096 65.40523145520717 174.5983388420218L372.0948064164329 -2.4686796469745786Z " transform="rotate(387.5, 400, 400)" opacity="0.49"></path><path d="M373.2110153804788 13.630053500818462C389.7880579473158 4.061017293846589 410.21200308784046 4.061017293846589 426.78904565467747 13.63273240233218L721.2110376174543 183.61707015176864C737.7880801842912 193.18610635874057 748.0000527545536 210.87489305376732 748.0000527545536 230.0156443692249V569.9843198680978C748.0000527545536 589.1250711835554 737.7880801842912 606.8138578785821 721.2110376174543 616.3855729870677L426.78904565467747 786.3699107365042C410.21200308784046 795.9389469434759 389.7880579473158 795.9389469434759 373.2110153804788 786.3672318349904L78.78902341770203 616.382894085554C62.21198085086496 606.8138578785821 52.000008280602685 589.1250711835554 52.000008280602685 569.9843198680978V230.0156443692249C52.000008280602685 210.87489305376732 62.21198085086496 193.18610635874057 78.78902341770203 183.61439125025504L373.2110153804788 13.630053500818462Z " transform="rotate(372, 400, 400)" opacity="0.78"></path><path d="M374.32722434452455 29.72883242497869C390.21355680441 20.558506059963975 409.78650423074623 20.558506059963975 425.6728366906317 29.731399705596004L707.8272456549594 192.63305671547266C723.713578114845 201.80338308048738 733.5000518280129 218.75513699655465 733.5000518280129 237.09835700720146V562.9016710269548C733.5000518280129 581.2448910376015 723.713578114845 598.1966449536689 707.8272456549594 607.3695385993009L425.6728366906317 770.2711956091774C409.78650423074623 779.4415219741921 390.21355680441 779.4415219741921 374.32722434452455 770.2686283285602L92.17281538019688 607.3669713186836C76.28648292031136 598.1966449536689 66.50000920714331 581.2448910376015 66.50000920714331 562.9016710269548V237.09835700720146C66.50000920714331 218.75513699655465 76.28648292031136 201.80338308048738 92.17281538019688 192.63048943485535L374.32722434452455 29.72883242497869Z " transform="rotate(356.5, 400, 400)" opacity="0.63"></path><path d="M375.4434333085703 45.82755031398267C390.63905566150436 37.05593379092511 409.3610053736519 37.05593379092511 424.55662772658593 45.83000597370358L694.4434536924646 201.64898224402032C709.6390760453985 210.42059876707793 719.0000509014724 226.63531990418574 719.0000509014724 244.18100861002188V555.8189611506554C719.0000509014724 573.3646498564915 709.6390760453985 589.5793709935994 694.4434536924646 598.3534431763777L424.55662772658593 754.1724194466944C409.3610053736519 762.944035969752 390.63905566150436 762.944035969752 375.4434333085703 754.1699637869737L105.55660734269173 598.3509875166569C90.36098498975775 589.5793709935994 81.00001013368399 573.3646498564915 81.00001013368399 555.8189611506554V244.18100861002188C81.00001013368399 226.63531990418574 90.36098498975775 210.42059876707793 105.55660734269173 201.64652658429952L375.4434333085703 45.82755031398267Z " transform="rotate(341, 400, 400)" opacity="0.97"></path><path d="M376.5596422726162 61.92629872056477C391.0645545185987 53.5533920394644 408.93550651655755 53.5533920394644 423.44041876254005 61.92864275938928L681.0596617299697 210.6649382901462C695.5645739759522 219.0378449712466 704.5000499749316 234.515533329395 704.5000499749316 251.26369073042042V548.7362817919342C704.5000499749316 565.4844391929596 695.5645739759522 580.962127551108 681.0596617299697 589.3373782710329L423.44041876254005 738.0736738017897C408.93550651655755 746.4465804828902 391.0645545185987 746.4465804828902 376.5596422726162 738.0713297629653L118.94039930518653 589.3350342322084C104.43548705920415 580.962127551108 95.50001106022461 565.4844391929596 95.50001106022461 548.7362817919342V251.26369073042042C95.50001106022461 234.515533329395 104.43548705920415 219.0378449712466 118.94039930518653 210.66259425132176L376.5596422726162 61.92629872056477Z " transform="rotate(325.5, 400, 400)" opacity="0.90"></path><path d="M377.67585123666197 78.025077644725C391.4900533756929 70.05088080558178 408.5100076594633 70.05088080558178 422.3242097984943 78.02731006265316L667.6758697674749 219.68092485385023C681.4900719065057 227.65512169299342 690.000049048391 242.39577727218239 690.000049048391 258.34640336839703V541.6536329507911C690.000049048391 557.6042590470058 681.4900719065057 572.3449146261946 667.6758697674749 580.321343883266L422.3242097984943 721.9749586744631C408.5100076594633 729.9491555136063 391.4900533756929 729.9491555136063 377.67585123666197 721.972726256535L132.32419126768139 580.319111465338C118.50998912865049 572.3449146261946 110.00001198676523 557.6042590470058 110.00001198676523 541.6536329507911V258.34640336839703C110.00001198676523 242.39577727218239 118.50998912865049 227.65512169299342 132.32419126768139 219.67869243592213L377.67585123666197 78.025077644725Z " transform="rotate(310, 400, 400)" opacity="0.30"></path><path d="M378.79206020070774 94.12379553372904C391.91555223278715 86.54830853654292 408.0845088023691 86.54830853654292 421.2080008344485 94.12591633076073L654.29207780498 228.69685038239788C667.4155698370594 236.27233737958397 675.5000481218503 250.27596017981352 675.5000481218503 265.4290549712174V534.5709230744917C675.5000481218503 549.7240178658958 667.4155698370594 563.7276406661252 654.29207780498 571.3052484603429L421.2080008344485 705.8761825119801C408.0845088023691 713.4516695091662 391.91555223278715 713.4516695091662 378.79206020070774 705.8740617149484L145.70798323017624 571.3031276633113C132.58449119809688 563.7276406661252 124.50001291330591 549.7240178658958 124.50001291330591 534.5709230744917V265.4290549712174C124.50001291330591 250.27596017981352 132.58449119809688 236.27233737958397 145.70798323017624 228.6947295853663L378.79206020070774 94.12379553372904Z " transform="rotate(294.5, 400, 400)" opacity="0.23"></path><path d="M379.9082691647536 110.22254394031114C392.3410510898814 103.04576678508221 407.6590099452749 103.04576678508221 420.09179187040263 110.22455311644643L640.9082858424852 237.71280642852378C653.341067767613 244.88958358375265 661.0000471953098 258.1561736050227 661.0000471953098 272.5117370916159V527.4882437157705C661.0000471953098 541.8438072023638 653.341067767613 555.1103972236338 640.9082858424852 562.289183554998L420.09179187040263 689.7774368670753C407.6590099452749 696.9542140223042 392.3410510898814 696.9542140223042 379.9082691647536 689.77542769094L159.09177519267104 562.2871743788627C146.65899326754328 555.1103972236338 139.00001383984653 541.8438072023638 139.00001383984653 527.4882437157705V272.5117370916159C139.00001383984653 258.1561736050227 146.65899326754328 244.88958358375265 159.09177519267104 237.7107972523885L379.9082691647536 110.22254394031114Z " transform="rotate(279, 400, 400)" opacity="0.73"></path><path d="M381.0244628700103 126.32129234689324C392.7665346881866 119.54322503362147 407.2334958293916 119.54322503362147 418.9755676475678 126.32318990213213L627.5244786212013 246.7287624746496C639.2665504393775 253.50682978792133 646.5000310099799 266.03638703023194 646.5000310099799 279.59441921201443V520.4055643570493C646.5000310099799 533.9635965388319 639.2665504393775 546.4931537811425 627.5244786212013 553.273118649653L418.9755676475678 673.6786912221705C407.2334958293916 680.4567585354423 392.7665346881866 680.4567585354423 381.0244628700103 673.6767936669318L172.47555189637683 553.2712210944142C160.7334800782006 546.4931537811425 153.49999950759815 533.9635965388319 153.49999950759815 520.4055643570493V279.59441921201443C153.49999950759815 266.03638703023194 160.7334800782006 253.50682978792133 172.47555189637683 246.7268649194108L381.0244628700103 126.32129234689324Z " transform="rotate(263.5, 400, 400)" opacity="0.64"></path><path d="M382.1406565752671 142.42004075347535C393.1920182864918 136.04068328216073 406.8079817135082 136.04068328216073 417.85934342473297 142.42182668781783L614.1406713999174 255.74471852077545C625.1920331111421 262.12407599209007 632.0000148246504 273.9166004554412 632.0000148246504 286.6771013324129V513.3228849983282C632.0000148246504 526.0833858752999 625.1920331111421 537.875910338651 614.1406713999174 544.257053744308L417.85934342473297 657.5799455772658C406.8079817135082 663.9593030485803 393.1920182864918 663.9593030485803 382.1406565752671 657.5781596429233L185.85932860008262 544.2552678099657C174.8079668888579 537.875910338651 167.9999851753497 526.0833858752999 167.9999851753497 513.3228849983282V286.6771013324129C167.9999851753497 273.9166004554412 174.8079668888579 262.12407599209007 185.85932860008262 255.74293258643303L382.1406565752671 142.42004075347535Z " transform="rotate(248, 400, 400)" opacity="0.85"></path><path d="M383.2568655393129 158.5187739012684C393.61751714358604 152.53812627191095 406.38248285641396 152.53812627191095 416.7431344606871 158.52044821471446L600.7568794374226 264.7606593081122C611.1175310416957 270.7413069374697 617.5000138981097 281.7967986218614 617.5000138981097 293.7597681940224V506.2401903808179C617.5000138981097 518.2031599529789 611.1175310416957 529.2586516373706 600.7568794374226 535.2409735801741L416.7431344606871 641.481184673572C406.38248285641396 647.4618323029293 393.61751714358604 647.4618323029293 383.2568655393129 641.4795103601259L199.24312056257747 535.239299266728C188.8824689583043 529.2586516373706 182.49998610189033 518.2031599529789 182.49998610189033 506.2401903808179V293.7597681940224C182.49998610189033 281.7967986218614 188.8824689583043 270.7413069374697 199.24312056257747 264.7589849946662L383.2568655393129 158.5187739012684Z " transform="rotate(232.5, 400, 400)" opacity="0.10"></path><path d="M384.3730745033587 174.61753756663956C394.0430160006803 169.03559977923928 405.9569839993197 169.03559977923928 415.6269254966413 174.61910025918922L587.3730874749277 273.7766306130271C597.0430289722494 279.35856840042743 603.000012971569 289.6770273058597 603.000012971569 300.84246557320995V499.1575262808858C603.000012971569 510.3229645482361 597.0430289722494 520.6414234536683 587.3730874749277 526.2249239336182L415.6269254966413 625.3824542874561C405.9569839993197 630.9643920748564 394.0430160006803 630.9643920748564 384.3730745033587 625.3808915949065L212.62691252507227 526.2233612410686C202.95697102775068 520.6414234536683 196.999987028431 510.3229645482361 196.999987028431 499.1575262808858V300.84246557320995C196.999987028431 289.6770273058597 202.95697102775068 279.35856840042743 212.62691252507227 273.7750679204775L384.3730745033587 174.61753756663956Z " transform="rotate(217, 400, 400)" opacity="0.59"></path><path d="M385.4892834674045 190.71628597322166C394.4685148577746 185.53305802777854 405.5314851422254 185.53305802777854 414.5107165325955 190.71773704487492L573.9892955124329 282.792586659153C582.968526902803 287.9758146045961 588.5000120450284 297.55724073106893 588.5000120450284 307.92514769360844V492.0748469221646C588.5000120450284 502.4427538847042 582.968526902803 512.0241800111769 573.9892955124329 517.2088590282733L414.5107165325955 609.2837086425513C405.5314851422254 614.4669365879945 394.4685148577746 614.4669365879945 385.4892834674045 609.2822575708981L226.01070448756712 517.20740795662C217.03147309719702 512.0241800111769 211.49998795497163 502.4427538847042 211.49998795497163 492.0748469221646V307.92514769360844C211.49998795497163 297.55724073106893 217.03147309719702 287.9758146045961 226.01070448756712 282.79113558749975L385.4892834674045 190.71628597322166Z " transform="rotate(201.5, 400, 400)" opacity="0.73"></path><path d="M386.60549243145033 206.81503437980376C394.89401371486883 202.03051627631783 405.10598628513117 202.03051627631783 413.39450756854967 206.81637383056062L560.605503549938 291.80854270527885C568.8940248333565 296.5930608087648 574.0000111184877 305.4374541562782 574.0000111184877 315.007829814007V484.99216756344345C574.0000111184877 494.5625432211723 568.8940248333565 503.4069365686855 560.605503549938 508.1927941229284L413.39450756854967 593.1849629976466C405.10598628513117 597.9694811011325 394.89401371486883 597.9694811011325 386.60549243145033 593.1836235468897L239.39449645006198 508.1914546721715C231.10597516664342 503.4069365686855 225.99998888151225 494.5625432211723 225.99998888151225 484.99216756344345V315.007829814007C225.99998888151225 305.4374541562782 231.10597516664342 296.5930608087648 239.39449645006198 291.80720325452205L386.60549243145033 206.81503437980376Z " transform="rotate(186, 400, 400)" opacity="0.36"></path><path d="M387.7217013954961 222.91378278638587C395.3195125719631 218.5279745248571 404.6804874280369 218.5279745248571 412.2782986045039 222.91501061624632L547.2217115874432 300.8244987514047C554.8195227639102 305.2103070129335 559.5000101919471 313.3176675814874 559.5000101919471 322.09051193440547V477.9094882047222C559.5000101919471 486.6823325576403 554.8195227639102 494.78969312619415 547.2217115874432 499.17672921758344L412.2782986045039 577.0862173527418C404.6804874280369 581.4720256142705 395.3195125719631 581.4720256142705 387.7217013954961 577.0849895228814L252.77828841255678 499.175501387723C245.1804772360898 494.78969312619415 240.49998980805293 486.6823325576403 240.49998980805293 477.9094882047222V322.09051193440547C240.49998980805293 313.3176675814874 245.1804772360898 305.2103070129335 252.77828841255678 300.8232709215443L387.7217013954961 222.91378278638587Z " transform="rotate(170.5, 400, 400)" opacity="0.50"></path><path d="M388.8379103595419 239.0125159341789C395.7450114290574 235.02541751460728 404.2549885709426 235.02541751460728 411.1620896404581 239.01363214314296L533.8379196249484 309.8404395387415C540.7450206944638 313.8275379583131 545.0000092654064 321.1978657479076 545.0000092654064 329.1731787960149V470.82679358721197C545.0000092654064 478.8021066353193 540.7450206944638 486.1724344249137 533.8379196249484 490.1606490534494L411.1620896404581 560.987456449048C404.2549885709426 564.9745548686196 395.7450114290574 564.9745548686196 388.8379103595419 560.9863402400839L266.16208037505163 490.1595328444854C259.2549793055362 486.1724344249137 254.99999073459355 478.8021066353193 254.99999073459355 470.82679358721197V329.1731787960149C254.99999073459355 321.1978657479076 259.2549793055362 313.8275379583131 266.16208037505163 309.83932332977747L388.8379103595419 239.0125159341789Z " transform="rotate(155, 400, 400)" opacity="0.29"></path><path d="M389.95411932358775 255.1112795995501C396.1705102861516 251.52289102193564 403.8294897138484 251.52289102193564 410.04588067641225 255.11228418761775L520.4541276624535 318.8564108436564C526.6705186250174 322.4447994212709 530.5000083388659 329.07809443190587 530.5000083388659 336.2558761752025V463.7441294872798C530.5000083388659 470.9219112305764 526.6705186250174 477.5552062412114 520.4541276624535 481.1445994068935L410.04588067641225 544.8887260629322C403.8294897138484 548.4771146405467 396.1705102861516 548.4771146405467 389.95411932358775 544.8877214748645L279.5458723375465 481.1435948188259C273.32948137498255 477.5552062412114 269.49999166113423 470.9219112305764 269.49999166113423 463.7441294872798V336.2558761752025C269.49999166113423 329.07809443190587 273.32948137498255 322.4447994212709 279.5458723375465 318.8554062555888L389.95411932358775 255.1112795995501Z " transform="rotate(139.5, 400, 400)" opacity="0.69"></path><path d="M391.0703282876335 271.21001274734317C396.5960091432459 268.0203340116858 403.4039908567541 268.0203340116858 408.9296717123665 271.2109057145144L507.0703356999587 327.8723516309932C512.596016555571 331.0620303666505 516.0000074123252 336.95829259832607 516.0000074123252 343.3385430368119V456.66143486976955C516.0000074123252 463.0416853082554 512.596016555571 468.937947539931 507.0703356999587 472.12851924275947L408.9296717123665 528.7899651592384C403.4039908567541 531.9796438948956 396.5960091432459 531.9796438948956 391.0703282876335 528.7890721920671L292.9296643000413 472.12762627558834C287.40398344442895 468.937947539931 283.99999258767485 463.0416853082554 283.99999258767485 456.66143486976955V343.3385430368119C283.99999258767485 336.95829259832607 287.40398344442895 331.0620303666505 292.9296643000413 327.87145866382195L391.0703282876335 271.21001274734317Z " transform="rotate(124, 400, 400)" opacity="0.96"></path><path d="M392.18653725167934 287.3087687833198C397.0215080003402 284.51779988961965 402.9784919996598 284.51779988961965 407.81346274832066 287.30955012959464L493.68654373746386 336.88831530651356C498.5215144861247 339.6792842002137 501.5000064857845 344.83851365292986 501.5000064857845 350.42123278660495V449.5787631404429C501.5000064857845 455.16148227411804 498.5215144861247 460.32071172683413 493.68654373746386 463.1124619668091L407.81346274832066 512.691227143728C402.9784919996598 515.4821960374281 397.0215080003402 515.4821960374281 392.18653725167934 512.6904457974533L306.31345626253614 463.1116806205343C301.47848551387534 460.32071172683413 298.4999935142155 455.16148227411804 298.4999935142155 449.5787631404429V350.42123278660495C298.4999935142155 344.83851365292986 301.47848551387534 339.6792842002137 306.31345626253614 336.8875339602388L392.18653725167934 287.3087687833198Z " transform="rotate(108.5, 400, 400)" opacity="0.89"></path><path d="M393.30274621572516 303.40752481929644C397.4470068574344 301.01526576755344 402.5529931425656 301.01526576755344 406.69725378427484 303.40819454467487L480.302751774969 345.904278982034C484.44701241667826 348.2965380337769 487.00000555924385 352.7187347075336 487.00000555924385 357.503922536398V442.49609141111625C487.00000555924385 447.2812792399807 484.44701241667826 451.7034759137373 480.302751774969 454.0964046908587L406.69725378427484 496.59248912821784C402.5529931425656 498.9847481799608 397.4470068574344 498.9847481799608 393.30274621572516 496.5918194028394L319.697248225031 454.0957349654803C315.55298758332174 451.7034759137373 312.99999444075615 447.2812792399807 312.99999444075615 442.49609141111625V357.503922536398C312.99999444075615 352.7187347075336 315.55298758332174 348.2965380337769 319.697248225031 345.90360925665556L393.30274621572516 303.40752481929644Z " transform="rotate(93, 400, 400)" opacity="0.94"></path><path d="M394.41895517977093 319.506265596484C397.8725057145287 317.5127163866982 402.1274942854713 317.5127163866982 405.58104482022907 319.50682370096604L466.9189598124742 354.9202273987653C470.3725103472319 356.9137766085511 472.5000046327032 360.59894050334833 472.5000046327032 364.586597027402V435.41340442300054C472.5000046327032 439.4010609470542 470.3725103472319 443.0862248418514 466.9189598124742 445.0803321561192L405.58104482022907 480.4937358539185C402.1274942854713 482.48728506370435 397.8725057145287 482.48728506370435 394.41895517977093 480.4931777494365L333.0810401875258 445.07977405163723C329.6274896527681 443.0862248418514 327.4999953672968 439.4010609470542 327.4999953672968 435.41340442300054V364.586597027402C327.4999953672968 360.59894050334833 329.6274896527681 356.9137766085511 333.0810401875258 354.91966929428327L394.41895517977093 319.506265596484Z " transform="rotate(77.5, 400, 400)" opacity="0.33"></path><path d="M395.53516414381676 335.6050140030661C398.298004571623 334.0101746352375 401.701995428377 334.0101746352375 404.46483585618324 335.60546048665174L453.53516784997936 363.9361834448911C456.2980082777855 365.53102281271975 458.0000037061626 368.4791539285576 458.0000037061626 371.66927914780047V428.3307250642793C458.0000037061626 431.52085028352224 456.2980082777855 434.46898139936 453.53516784997936 436.06426725077426L404.46483585618324 464.3949902090137C401.701995428377 465.98982957684234 398.298004571623 465.98982957684234 395.53516414381676 464.3945437254281L346.46483215002064 436.0638207671887C343.7019917222145 434.46898139936 341.9999962938374 431.52085028352224 341.9999962938374 428.3307250642793V371.66927914780047C341.9999962938374 368.4791539285576 343.7019917222145 365.53102281271975 346.46483215002064 363.9357369613055L395.53516414381676 335.6050140030661Z " transform="rotate(62, 400, 400)" opacity="0.64"></path><path d="M396.6513731078626 351.7037624096482C398.7235034287172 350.50763288377675 401.2764965712828 350.50763288377675 403.3486268921374 351.70409727233744L440.1513758874845 372.95213949101696C442.22350620833913 374.1482690168885 443.5000027796219 376.3593673537668 443.5000027796219 378.751961268199V421.2480457055581C443.5000027796219 423.64063961999034 442.22350620833913 425.85173795686865 440.1513758874845 427.04820234542933L403.3486268921374 448.2962445641089C401.2764965712828 449.4923740899804 398.7235034287172 449.4923740899804 396.6513731078626 448.2959097014197L359.8486241125155 427.0478674827401C357.77649379166087 425.85173795686865 356.4999972203781 423.64063961999034 356.4999972203781 421.2480457055581V378.751961268199C356.4999972203781 376.3593673537668 357.77649379166087 374.1482690168885 359.8486241125155 372.95180462832775L396.6513731078626 351.7037624096482Z " transform="rotate(46.5, 400, 400)" opacity="0.42"></path><path d="M397.7675820719084 367.80249555744126C399.1490022858115 367.00507587352695 400.8509977141885 367.00507587352695 402.2324179280916 367.80271879923407L426.7675839249897 381.9680802783538C428.1490041388928 382.7654999622681 429.0000018530813 384.239565520187 429.0000018530813 385.83462812980844V414.1653510880479C429.0000018530813 415.7604136976693 428.1490041388928 417.2344792555882 426.7675839249897 418.03212218129534L402.2324179280916 432.19748366041506C400.8509977141885 432.9949033443294 399.1490022858115 432.9949033443294 397.7675820719084 432.19726041862225L373.23241607501035 418.0318989395025C371.85099586110726 417.2344792555882 370.9999981469187 415.7604136976693 370.9999981469187 414.1653510880479V385.83462812980844C370.9999981469187 384.239565520187 371.85099586110726 382.7654999622681 373.23241607501035 381.967857036561L397.7675820719084 367.80249555744126Z " transform="rotate(31, 400, 400)" opacity="0.43"></path><path d="M398.8837910359542 383.9012592228124C399.5745011429057 383.50254938085527 400.4254988570943 383.50254938085527 401.1162089640458 383.90137084370883L413.38379196249485 390.9840515832687C414.0745020694464 391.38276142522585 414.5000009265406 392.11979420418527 414.5000009265406 392.91732550899604V407.0826869881157C414.5000009265406 407.8802182929265 414.0745020694464 408.6172510718859 413.38379196249485 409.01607253473946L401.1162089640458 416.0987532742993C400.4254988570943 416.4974631162565 399.5745011429057 416.4974631162565 398.8837910359542 416.0986416534029L386.61620803750515 409.01596091384306C385.9254979305536 408.6172510718859 385.4999990734594 407.8802182929265 385.4999990734594 407.0826869881157V392.91732550899604C385.4999990734594 392.11979420418527 385.9254979305536 391.38276142522585 386.61620803750515 390.9839399623723L398.8837910359542 383.9012592228124Z " transform="rotate(15.5, 400, 400)" opacity="0.13"></path></g></svg>