<?xml version="1.0" encoding="UTF-8" standalone="no"?>
<svg
   xmlns:dc="http://purl.org/dc/elements/1.1/"
   xmlns:cc="http://creativecommons.org/ns#"
   xmlns:rdf="http://www.w3.org/1999/02/22-rdf-syntax-ns#"
   xmlns:svg="http://www.w3.org/2000/svg"
   xmlns="http://www.w3.org/2000/svg"
   id="svg83635"
   version="1.1"
   viewBox="-60 -60 120 120"
   height="120mm"
   width="120mm">
  <defs
     id="defs83637">
    <style
       id="style167584">.cls-1{fill:#a3a3a3;}.cls-1,.cls-2{fill-rule:evenodd;}.cls-2{fill:#4e7ccc;}</style>
  </defs>
  <metadata
     id="metadata2822">
    <rdf:RDF>
      <cc:Work
         rdf:about="">
        <dc:format>image/svg+xml</dc:format>
        <dc:type
           rdf:resource="http://purl.org/dc/dcmitype/StillImage" />
        <dc:title></dc:title>
      </cc:Work>
    </rdf:RDF>
  </metadata>
  <g
     style="fill:none;stroke:black;stroke-width:0.05"
     id="Template">
    <g
       transform="matrix(0.99747934,0,0,0.99304776,22.012444,18.769644)"
       id="g167663"
       style="fill:none">
      <g
         style="stroke-width:0"
         id="SVGRepo_bgCarrier" />
      <g
         style="stroke-linecap:round;stroke-linejoin:round"
         id="SVGRepo_tracerCarrier" />
      <g
         id="SVGRepo_iconCarrier">
        <path
           style="fill:#4e7ccc"
           d="m 16.0003,2.99951 -14.99999,7.99999 7.11,3.79 7.88999,4.21 7.98,-4.259 7.019,-3.741 z"
           id="path167642" />
        <path
           style="fill:#4e7ccc"
           d="m 24,14.7497 v 9.25 c 0,0 -3,3 -8,3 -5,0 -8,-3 -8,-3 v -9 l 0.11,-0.21 7.89,4.21 7.98,-4.26 z"
           id="path167644" />
        <path
           style="stroke:#a3a3a3;stroke-width:2;stroke-linecap:round;stroke-linejoin:round"
           d="m 16,11 8,3.75 V 29 M 8,19 v 5 c 0,0 3,3 8,3 2.022,0 3.719,-0.356 5.021,-0.941 M 1,11 16,3 31,11 16,19 Z"
           id="path167646" />
      </g>
    </g>
  </g>
</svg>
