<svg xmlns="http://www.w3.org/2000/svg" version="1.1" xmlns:xlink="http://www.w3.org/1999/xlink" xmlns:svgjs="http://svgjs.dev/svgjs" viewBox="0 0 800 800"><defs><linearGradient x1="50%" y1="0%" x2="50%" y2="100%" id="ssscribble-grad"><stop stop-color="hsl(162, 100%, 58%)" stop-opacity="1" offset="0%"></stop><stop stop-color="hsl(270, 73%, 53%)" stop-opacity="1" offset="100%"></stop></linearGradient></defs><g fill="none" stroke-width="1" stroke="url(#ssscribble-grad)" stroke-linecap="round" stroke-dasharray="62"><path d="M848.23 649.65C818.64 677.44 982.28 719.28 1251.05 772.73 1495.42 823.73 1593.81 881.09 1505.02 937.76 1271.68 982.47 1001.05 1013.7 809.15 1020.35 769.78 1001.13 890.85 946.42 1110.77 853.8 1342.71 745.15 1489.14 620.71 1499.58 504.92 1373.02 436.03 1155.22 429.43 919.38 507.91 729.35 664.42 638.98 880.78 659.17 1110.24 776.18 1281.89 945.01 1349.95 1114.97 1280.37 1252.09 1099.63 1318.25 867 1306.32 681.54 1222.03 639.82 1084.81 773.04 922.39 1042.87 749.63 1324.73 596.35 1488.95 475.58 1442.42 362.8 1066.64 346.37 957.67 394.82 1419.86 439.64 1576.1 479.08 1460.27 508.08 1145.34 538.15 861.39 554.43 815.94 555.97 1056.61 557.12 1406.89 543.92 1602 516.14 1482.58 488.35 1141.57 446.64 851.85 391.36 833.31 335.69 1094.09 266.08 1428.31 183.61 1587.61 102.21 1461.45 11.3 1141.13 -83.93 848.37 -168.8 768.82 -246.14 942.93 -305.31 1241.79 -336.5 1479.59 -334.49 1506.03 -291.82 1314.58 -216.68 1009.23 -107.69 755.35 22.24 669.45 141.83 777.88 237.69 1009.88 282.22 1244.82 254.39 1385.1 150.08 1366.98 -23.45 1208.96 -229.83 965.3 -433.34 725.48 -583.17 557.55 -636.17 493.02 -576.74 537.09 -415.64 655.6 -208.73 818.46 -17.86 970.82 83.91 1080.59 48.69 1140.42 -120.39 1136.78 -372.69 1082.45 -612.98 985.98 -752.14 868.26 -728.45 747.18 -552.23 618.78 -294.87 505.19 -72.26 410.76 5.8 321.15 -100.76 250.63 -350.62 196.75 -624.89 145.25 -791.35 106.27 -761.76 78.48 -549.76 50.69 -265.59 34.76 -51.04 32.12 -6.53 31.88 -147.69 49.06 -399.1 86.26 -645.72 128.28 -770.33 190.39 -722.58 268.38 -524.79 339.04 -261.75 407.43 -38.34 455.75 67.28 461.95 22.51 418.65 -141.51 313.22 -363.7 157.84 -555.89 -38.79 -654.78 -244.49 -633.92 -405.84 -500.16 -491.31 -297.89 -466.57 -75.1 -338.42 108.33 -136.77 217.39 70.48 239.37 192.11 180.07 175.59 66.58 2.53 -79.67 -265.2 -218.31 -528.15 -324.64 -665.56 -391.65 -608.64 -405.26 -381.71 -371.58 -101.14 -297.01 65.56 -195.07 16.52 -80.78 -241.59 45.46 -560.83 165.03 -753.08 271.33 -689.28 372.93 -412.23 457.23 -105.16 525.38 10.34 587.82 -159.61 637.82 -501.98 678.33 -768.31 716.95 -755.37 749.57 -468.54 777.36 -127.5 805.15 -7.96 827.43 -200.17 842.94 -544.95 856.55 -780.2 859.88 -726.65 849.85 -432.02 834.1 -106.34 801.27 22.82 750.09 -117.68 694.2 -425.29 623.98 -685.01 545.89 -732.44 479.75 -541.42 424.77 -228.92 395.82 26.73 407.77 98.07 465.67 -39.19 575.51 -292.11 724.66 -533.02 904.66 -635.32 1090.69 -560.81 1243.93 -342.54 1341.38 -75.23 1355.83 141.93 1283.18 247.94 1134.43 218.04 944.45 86.15 774.99 -103.54 672.17 -278.55 680.25 -392.23 808.07 -427.88 1027.18 -377 1274.16 -262.49 1462.97 -101.07 1530.39 70.32 1445.13 227.12 1242.09 367.89 997.14 471.96 815.03 541.59 782.95 585.36 920.83 605.6 1178.18 613.29 1440.31 609.02 1589.66 605 1550.63 608.12 1341.59 608.8 1060.23 621.87 848.23 649.65Q848.23 649.65 848.23 649.65" opacity="0.84"></path><path d="M813.23 785.51C780.54 812.09 926.74 833.18 1178.7 846.77 1424.99 857.53 1552.53 855.57 1510.47 836.32 1319.04 808.88 1059.72 759.49 836.48 687.53 729.58 611.93 773.84 524.06 940.55 437.11 1167.44 377.6 1364.78 350.89 1466.02 377.21 1442.48 463.6 1302.17 611.2 1092.57 806.94 867.64 1007.61 690.66 1182.99 598.45 1285.16 603.26 1281.6 693.15 1168.15 834.57 970.99 998.68 765.13 1140.1 617.99 1232.61 601.03 1267.48 736.78 1237.43 987.87 1154.83 1261.25 1029.7 1434.77 884.89 1432.26 739.27 1245.52 596.32 973.52 475.48 754.53 380.81 720.77 306.98 905.06 258.45 1215.85 229.19 1477.36 215.45 1529.6 211.45 1338.12 210.59 1019.61 215.99 789.79 217.59 804.68 211.65 1067.22 206.99 1398.86 192.06 1568.65 165.49 1447.58 138.91 1122.52 101.31 833.27 54.2 782.32 8.37 999.73 -44.23 1325.74 -99.76 1535.68 -149.02 1494.61 -194.26 1230.75 -228.74 915.43 -247.71 734.7 -246.38 789.51 -218.61 1029.51 -170 1314.37 -94.08 1475.89 5.22 1433.41 107.21 1210.57 209.65 921.13 293.82 698.29 335.45 627.97 325.94 727.81 253.03 934.87 122.49 1164.96 -55.4 1317.14 -254.35 1342.34 -430.61 1237.14 -553.68 1040 -589.87 814.67 -529.04 609.44 -381.66 477.42 -184.4 432.33 -2.48 470.47 112.06 568.09 111.89 691.68 -13.04 826.88 -232.04 937.46 -478.41 1010.88 -664.6 1051.78 -726.17 1052.2 -634.27 1022.24 -426.03 967.83 -179.4 899.82 1.76 829.17 33.56 750.54 -101.78 679.76 -353.34 621.73 -610.56 562.6 -759.45 518.95 -726.76 492.37 -526.54 465.79 -254.64 456.9 -36.02 464.26 35.3 470.52 -67.29 490.27 -290.83 518.79 -541.01 539.31 -707.64 558.09 -726.45 564.29 -593.04 546.04 -360.58 498.43 -116.85 411.49 58.26 292.02 107.77 136.54 28.11 -42.29 -149.43 -209.53 -356.64 -349.54 -526.22 -428.67 -614.21 -424.57 -592.97 -332.14 -475.15 -164.95 -288.43 22.33 -81.74 183 100.8 253.4 232.71 193.41 291.14 8.08 279.08 -253.38 205.01 -491.85 94.15 -621.32 -27.62 -578.71 -149.78 -383.58 -245.25 -119.9 -305.28 79.26 -332.66 98.08 -322.51 -85.04 -282.99 -389.38 -218.41 -648.89 -139.06 -721.06 -54.56 -555.38 38.68 -255.07 126.67 -3.87 204.93 27.01 283.9 -193.12 350.4 -526.94 403.54 -749.68 456.29 -704.08 496.12 -417.59 522.69 -92.5 549.27 28.67 561.97 -138.34 561 -464.7 559.63 -722.04 544.14 -729.19 515.28 -489.17 487.16 -160.39 448.41 43.83 403.37 6.64 367.1 -239.83 334.95 -533.33 316.43 -698.18 322.97 -644.97 357.74 -404.34 428.76 -108.63 532.43 101.83 670.26 130.12 833.39 -15.69 996.14 -261.4 1146.55 -482.9 1258.66 -587.29 1308.75 -538.95 1286.81 -358.64 1189.74 -117.95 1042.02 114.04 868.51 263.99 713.17 305.59 626.73 241.46 635.09 105.63 750.76 -54.06 948.02 -208.83 1180.98 -314.07 1382.24 -356.83 1485.6 -339.5 1457.76 -267.88 1302.12 -162.31 1077.86 -29.3 862.71 105.77 744.3 229.59 778.11 349.77 957.43 448.4 1217.87 525.96 1451.67 595.33 1562.09 648.31 1496.02 689.31 1282.66 727.5 1013.45 758.94 813.23 785.51Q813.23 785.51 813.23 785.51" opacity="0.58"></path><path d="M778.28 453.51C742.82 478.88 872.09 486.92 1106.14 478.23 1350.41 469.51 1501.72 444.58 1503.7 405.88 1358.59 370.95 1123.43 329.19 886.15 289.21 725.64 267.9 694.32 265.7 791.78 295.75 982.14 363 1193.99 473.07 1358.64 624.98 1431.77 794.52 1390.23 971.89 1251.77 1126.36 1050.58 1220.66 840.98 1237.05 669.75 1160.71 565.1 1012.78 544.6 821.9 599.13 644.55 714.06 549.57 855.48 572.81 992.82 727.26 1110.95 966.88 1184.12 1219.21 1207.09 1388.15 1182.69 1401.87 1115.81 1251.79 1020.25 997.84 900.93 766.31 776.08 668.26 656.58 769.3 538.84 1028.42 437.34 1322.36 353.53 1494.09 279.1 1446.13 220.77 1201.95 175.18 901.28 135.77 732.5 103.93 802.41 76.32 1079.22 50.46 1389.33 25.47 1534.64 0.1 1412.57 -25.26 1103.54 -50.41 816.83 -73.96 736.77 -95.78 909.46 -112.63 1216.73 -121.06 1462.75 -123.31 1502.16 -111.99 1311.97 -83.58 1008.7 -45.81 757.67 10.62 693.17 84.4 833.43 159.93 1098.84 241.91 1342.27 319.57 1444.84 373.47 1362.89 399.91 1135.93 385.21 866.82 323.13 656.18 212.21 583.25 57.78 656.1 -115.86 839.37 -292.12 1052.53 -440.3 1219.94 -528.08 1297.47 -539.25 1260 -464.55 1128.66 -323.28 933.56 -141.93 728.13 32.84 553.54 144.87 428.04 161.83 371.25 66.07 375.33 -121.2 432.13 -353.72 518.55 -562.68 613.04 -678.74 714.49 -663.94 797.94 -517.75 857.52 -294.78 903.55 -71.74 924.98 63.57 926.95 51.79 918.85 -106.97 899.54 -356.26 874.74 -595.33 847.14 -727.17 819.52 -691.71 794.14 -503.07 768.78 -244.05 746.26 -23.86 724.44 70.91 699.83 5.99 670.45 -184.82 630.71 -427.49 580.9 -623.19 512.48 -701.18 420.43 -637.15 314.83 -454.88 186.33 -219.79 40.92 -3.4 -97.53 126.36 -226.84 139.84 -325.31 40.19 -371.07 -132.85 -354.76 -323.08 -268.38 -483.89 -132.9 -567.49 34.75 -558.68 193.57 -462.24 288.64 -302.57 291.3 -116.13 180.55 69.62 -20.08 218.28 -264.91 312.98 -478.16 349.32 -581.01 329.26 -536.36 267.73 -352.17 172.87 -109.48 68.63 92.91 -29.05 152.28 -119.82 27.12 -185.92 -236.95 -225.37 -520.97 -244.61 -679.87 -239.73 -631.94 -216.86 -395.27 -179.91 -106.32 -133.95 71.81 -85.14 22.68 -30.74 -233.08 20.28 -547.82 64.45 -725.61 109.77 -650.65 145.8 -366.57 171.17 -57.51 196.54 64.65 210.65 -77.99 214.75 -383.06 219.99 -654.9 217.65 -717.42 211.1 -538.91 210.14 -228.45 211.18 27.87 220.25 90.21 243.42 -67.16 283.6 -344.58 346.8 -585.13 430.22 -667.61 539.19 -548.91 671.62 -294.76 810.97 -18.17 955.65 156.51 1089.61 169.23 1190.24 26.72 1248.06 -197.36 1248.03 -407.02 1189.63 -531.53 1075.81 -523.11 923.3 -394.89 770.11 -184.29 642.11 41.42 575.63 225.65 596.78 338.3 708.62 359.68 895.85 304.48 1112.5 189.12 1310.14 52.19 1432.42 -75.68 1441.57 -185.94 1332.47 -253.13 1134.68 -276.42 918.19 -262.5 752.43 -215.24 702.72 -147.9 795.03 -61.9 1002.85 26.86 1255.31 109.63 1455.92 196.18 1528.3 269.79 1438.54 327.93 1223.36 386.04 966.92 428.14 778.28 453.51Q778.28 453.51 778.28 453.51" opacity="0.41"></path><path d="M744.43 56.32C705.11 80.49 816.76 96.28 1031.4 105.74 1270.16 117.51 1440.6 127.65 1483.97 141.65 1388.42 165.26 1188.64 201.95 954.28 258.94 756.89 333.88 657.74 435.21 678.34 563.42 807.46 701.05 997.8 849.94 1189.77 993.27 1335.31 1103.42 1391.36 1169.9 1349.06 1172.65 1220.01 1109.29 1037.32 982.74 842.7 814.02 667.89 652.17 547.76 530.78 495.02 494.75 510.73 567.59 582.99 741.9 690.07 979.42 818.77 1204.17 939.98 1350.2 1037.25 1359.33 1107.83 1227.03 1139.04 997.98 1133.61 764.52 1096.24 636.76 1033.02 675.44 954.1 880.01 859.96 1161.61 763.89 1395.58 672.56 1463.87 579.15 1330.22 496.37 1059.12 425.84 794.75 357.04 690.19 300.36 808.08 255.26 1091.72 211.01 1377.94 176.88 1499.74 152.71 1377.33 121.74 943.27 115.31 964.22 143.69 1370.77 168.66 1480.8 206.68 1373.53 256.24 1112.8 303.74 829.34 356.89 664.72 409.17 686.56 446.21 875.88 468.6 1132.35 466.3 1335.97 432.04 1404.4 362.32 1308.14 254.51 1093.63 119.99 836.82 -37.17 632.91 -200.44 540.67 -342.09 577.34 -447.53 717.48 -494.91 904.35 -473.84 1088.6 -383.87 1210.16 -237.59 1244.68 -71.5 1190.52 84.27 1063.64 188.17 897.19 205.31 712.36 125.85 547.19 -41.24 419.99 -254.76 332.79 -464.79 293.21 -611.62 291.54 -649.94 322.8 -566.51 371.72 -382.76 425.29 -162.03 488.24 26.2 541.79 112.42 581.09 59.73 619.42 -117.81 641.27 -361.36 646.89 -580.77 651.4 -694.87 641.4 -655.55 617.24 -477.24 593.08 -231.39 555.33 -12.66 503.75 100.7 451.06 70.24 382.84 -85.6 298.94 -311.28 214.08 -521.99 115.76 -647 8.97 -649.53 -88.42 -529.06 -180.26 -327.53 -253.39 -101.56 -293.59 82.1 -294.85 178.83 -247.32 170.52 -159.79 67.83 -33.14 -92.98 114.44 -274.39 243.65 -424.94 334.56 -512.62 354.15 -524.54 285.06 -458.26 130.32 -332.49 -85.59 -166.08 -304.13 8.15 -474.42 164.86 -539.62 292.31 -475.91 373.49 -298.91 408.26 -67.25 399.63 122.08 357.07 194.93 293.97 104.95 212.69 -120.21 131.67 -396.37 59.74 -603.4 -8.52 -642.95 -59.32 -494.06 -92.22 -224.24 -115.99 22.85 -124.06 118.58 -119.85 -0.77 -109.95 -276.9 -92.64 -563.49 -71.1 -696.16 -47.99 -595.35 -23.71 -315.61 0.44 -22.65 24.6 99.75 48.08 -19.59 72.03 -301.03 97.55 -579.89 126.62 -690.67 162.28 -576.78 203.65 -303.09 256.48 -20.46 324.09 126.82 400.82 72.16 494.53 -146.06 604.67 -409.95 718.48 -596.82 840.33 -615.8 961.29 -466.49 1064.06 -211.48 1145.13 40.98 1191 198.43 1193.48 214.46 1148.26 95.34 1055.39 -100.87 933.25 -309.86 792.18 -454.01 657.44 -495.18 563.34 -427.49 527.22 -272.92 567.67 -76.5 683.88 126.79 861.34 289.3 1067.9 389.9 1253.88 424.38 1379.98 396.42 1409.85 325.94 1334.67 222.3 1170.69 114.23 962.43 18.48 778.61 -67.85 673.88 -126.26 690.04 -157.36 828.68 -170.52 1050.94 -162.44 1285.94 -140.49 1451.11 -108.92 1488.69 -72.69 1380.1 -37.4 1166.14 0.2 922.74 32.16 744.43 56.32Q744.43 56.32 744.43 56.32" opacity="0.69"></path><path d="M708.23 76.39C668.62 99.34 766.21 131.38 962.28 173.34 1191.73 217 1373.46 273.57 1450.07 345.01 1400.83 420.58 1242.32 512.49 1026.21 619.38 812.7 725.26 663.47 837.39 613.44 945.65 670.32 1031.5 811.06 1091.73 992.01 1111.72 1171.2 1086.19 1299 1010.76 1349.02 889.35 1314.42 749.52 1203.84 605.72 1044.01 491.28 860.11 443.4 688.74 477.58 554.55 602.55 469.19 793.42 441.9 1015.38 466.03 1211.28 535.09 1320.06 630.15 1309.87 733.77 1175.31 841.12 965.14 931.77 746.85 998.67 607.26 1045.25 611.78 1063.82 767.59 1058.29 1024.6 1033.26 1276.59 992.14 1420.75 941.65 1387 881.19 1190.41 819.45 918.4 761.05 704.72 699.56 663.86 645.41 821.41 600.77 1104.78 555.64 1365.25 521.14 1464.7 498.19 1342.58 469.8 927.83 469.77 868.92 493.01 1263.55 508.12 1430.29 527.34 1407.1 546.15 1212.13 554.99 935.24 555.35 704.1 540.6 612.75 506.35 690.86 448.99 894.45 364.72 1130.92 260.13 1311.58 132.89 1363.03 -9.83 1274.4 -148.83 1076.7 -278.06 839.69 -379.96 635.65 -436.93 512.7 -441.16 499.6 -385.88 583.04 -281.78 737.19 -139.06 910.27 17.72 1058.59 150.45 1159.65 235.47 1188.69 246.17 1149.55 172.25 1051.26 22.2 915.77 -177.45 766.99 -378.87 612.45 -538.32 477.34 -612.03 369.66 -578.82 284.58 -444.54 229.4 -243.98 197.8 -40.83 184.78 106.71 184.38 147.1 188.67 61.62 200.48 -126.85 208.56 -360.84 208.49 -561.45 209.89 -661.37 199.92 -621.76 176.97 -455.88 154.02 -224.12 118.63 -7.65 72.52 123.45 27.89 127.95 -24.24 11.14 -79.34 -188.6 -126.92 -402.06 -169.05 -562.96 -197.69 -627.85 -207.75 -576.97 -193.35 -429.59 -148.06 -224.14 -80.17 -17.09 16.13 142.19 132.98 222.71 244.07 210.5 342.99 118.86 405.92 -30.29 409.71 -195.58 346.53 -340.72 212.65 -444.01 31.5 -482.45 -173.1 -454.96 -357.35 -367.97 -470.9 -238.46 -486.48 -88.39 -390.67 69.91 -213.75 212.26 -2.3 326.89 171.51 412.22 236.28 461.27 162.63 478.58 -38.47 467.36 -295.41 436.15 -517.73 394.2 -612.72 339.89 -538.23 286.93 -322.07 240.78 -58.13 193.52 123.92 157.75 136.21 134.57 -39.33 108.55 -446.2 115.78 -401.1 145.3 12.49 168.25 134.7 200.49 37.66 242.16 -218.22 284.63 -497.08 337.92 -647.94 402.61 -598.28 469.08 -375.78 547.37 -92.8 636.28 116.77 724.07 163.52 817.8 34.34 911.89 -200.8 993.63 -441 1063.63 -578.14 1112.54 -562.21 1132.91 -402.17 1120.46 -161.64 1070.5 72.43 991.25 230.91 883.06 266.68 757.6 185.01 640.37 16.22 542.39 -177.08 485.48 -337.87 488.07 -432.76 555.16 -435.43 685.56 -354.71 857.81 -207.43 1048.66 -29.46 1221.72 145.73 1337.26 302.53 1371.71 414.54 1311.66 477.77 1172.85 495.47 984.51 474.04 795.88 427.96 665.32 359.48 629.39 288.12 707.23 223.88 881.09 158.64 1105.51 109.25 1314.12 76.98 1439.79 48.82 1442.04 36.3 1315.48 37.36 1103.54 40.11 874.11 53.43 708.23 76.39Q708.23 76.39 708.23 76.39" opacity="0.22"></path><path d="M673.28 488.91C632.1 510.66 714.93 546.41 891.38 595 1108.81 642.93 1297.34 702.06 1402.72 769.3 1398.53 831.8 1286.54 896.15 1101.34 955.37 889.88 999.25 708.43 1026.08 598.28 1026.9 580.21 1000.95 652.62 941.96 790.49 849.67 963.78 741.91 1127.22 620.41 1246.82 504.1 1304.34 422.7 1287.31 388.08 1204.21 419.46 1068.54 519.62 906.42 681.67 743.41 882.16 594.58 1074.53 481.84 1223.12 412.46 1286.09 386.98 1243.89 402.73 1102.97 449.31 899.11 522.58 702.32 606.08 572.22 688.8 563.49 772.26 689.01 841.52 914.99 893.42 1166.53 934.45 1347.06 957.06 1388.71 963.91 1267.94 960.97 1036.11 947.05 786.95 926.12 633.51 900.34 652.46 872.22 840.44 844.62 1116.97 815.8 1350.37 789.94 1428.74 768.19 1307.57 746.44 1046.82 729.33 779.17 715.79 633.98 701.03 676.53 687.42 880.53 672.19 1144.4 652.1 1351.12 625.74 1405.47 589.23 1290.11 542.93 1054.45 481.69 798.13 402.98 619.75 313.39 579.06 207.38 683.17 88.21 881.57 -30.2 1104.85 -148.36 1268.32 -255.15 1322.3 -335.25 1254.71 -383.37 1088.64 -389 876.32 -350.73 666.57 -267.85 514.6 -147.53 446.07 -13.01 465.98 121.95 559.08 231.94 693.86 289.36 847.92 282.17 981.82 202.01 1074.88 59.78 1122.54 -124.73 1116.28 -317.42 1065.59 -474.68 977.05 -564.82 867.17 -562.68 750.72 -468.48 626.88 -301.18 514.03 -102 417.23 70.92 327.51 172.53 255.86 168.32 200.02 54.55 150.58 -140.38 112.29 -362.1 81.77 -542.86 53.22 -627.88 28.73 -586.71 6.98 -431.87 -14.75 -214.31 -33.24 -2.94 -47.05 140.68 -58.9 175.25 -62.35 96.55 -53.92 -71.3 -39.1 -274.68 -7.74 -455.39 42.5 -569.24 99.84 -584.34 174.06 -501.45 260.22 -341.25 338.98 -144.44 412.13 44.05 464.98 189.63 479.98 263.05 451.6 258.03 370.45 180.22 243.89 53.06 77.63 -93.93 -107.53 -239.64 -273.44 -352.67 -396.43 -417.83 -444.87 -431.22 -404.87 -390.91 -280.07 -307.69 -96.01 -189.77 90.64 -55.62 232.52 79.57 277.5 211.97 200.91 325.46 16.39 415.51 -226.27 485.11 -444.08 530 -565.95 554.49 -541.25 561.46 -378.84 555.93 -136.69 543.93 86.71 523.31 189.85 503.35 125.17 487.99 -89.89 470.01 -362.15 460.07 -572.59 459.94 -619.52 459.41 -478.7 469.65 -213.29 491.39 47.48 513.14 168.74 545.88 92.65 588.76 -136.4 631.25 -408.64 682.93 -590.28 741.92 -600.89 798.29 -439.11 858.54 -179.57 918.61 64.54 970.07 197.63 1014.22 170.18 1044.93 5.61 1058.13 -229.98 1049.99 -438.26 1016.1 -544.4 961.75 -516.3 882.93 -365.14 784.05 -145.72 682.36 80.78 580.58 245.93 493.77 313.82 441.67 276.54 431.22 155.09 473.12 -8.76 566.77 -180.75 706.95 -312.95 878.34 -382 1051.01 -382.27 1202.39 -315.28 1302.84 -200.37 1330.5 -50.54 1278.16 105.61 1151.97 249.08 982.87 377.08 803.78 472.81 659.52 536.46 592.57 573.32 621.83 585.11 747.96 580.69 940.94 560.92 1154.69 536.86 1330.95 515.36 1418.04 489.14 1389.88 471.75 1250.54 466.18 1043.47 459.94 828.12 467.16 673.28 488.91Q673.28 488.91 673.28 488.91" opacity="0.24"></path><path d="M638.28 793.53C596 814.06 664.96 836.61 821.77 859.62 1024.64 880.8 1214.59 898.88 1342.12 909.99 1378.36 914.31 1314.05 905.7 1168.98 879.81 976.62 842.65 783.75 785.25 631.73 707.95 547.88 625.87 546.52 534.18 620.04 443.73 752.27 375.46 909.86 333.61 1060.48 333.52 1182.53 383.61 1250.81 486.04 1258.26 636.33 1206.79 809.52 1106.1 987.76 974.01 1138.19 822.9 1225.77 675.64 1233.06 546.93 1150.56 441.6 999.55 370.53 809.9 333.2 632.47 327.3 525.99 347.75 523.05 386.12 637.41 441.69 839.68 502 1075.87 560.27 1270.76 621.32 1355.44 672.97 1299.57 713.06 1117.16 762.26 775.69 798.01 759.73 790.87 1127.88 782.47 1333.43 767.74 1392.14 747.2 1272.57 726.67 1027.89 700.8 770.02 669.2 610.97 636.65 615.08 596.61 775.4 547.75 1018.27 495.99 1246.9 433.38 1365.85 359.19 1333.72 281.84 1165.1 193.72 925.13 97.07 699.88 3.22 559.49 -91.8 546.9 -181.09 654.03 -253.19 843.97 -306.37 1048.57 -332.12 1206 -326.45 1278.42 -285.95 1245.11 -210 1122.14 -110.68 937.34 8.36 738.24 132.56 565.84 237.73 443.89 312.78 393.16 340.01 410.05 308.3 486.32 217.16 598.12 73.72 721.07 -98.28 845.48 -275.77 945.44 -426.32 1012.3 -518.16 1048.75 -533.54 1049.29 -464.73 1021.16 -327.77 968.63 -148.28 900.8 32.49 826.87 165.96 743.64 220.46 664.46 176.3 593.96 40.84 522.17 -155.14 462.17 -362.08 415.17 -522.95 368.38 -593.99 334.48 -551.71 313.94 -407.75 293.4 -204.65 286.7 -0.29 293.48 152.18 300.47 212.98 321.04 171.24 354.1 39.49 385.86 -143.23 427 -328.86 472.97 -476.64 509.64 -548.76 541 -532.55 557.95 -433.59 550.5 -275.07 515.28 -91.67 445.12 85.61 344.55 222.06 211.87 298.56 55.81 308.05 -98.8 254.81 -241.18 155.5 -346.85 24.5 -393.16 -110.25 -370.66 -228.27 -275.65 -320.53 -130.18 -371.09 43.27 -378.43 203.84 -345.39 302.58 -277.43 313.05 -185.46 219.28 -73.62 40.49 43.36 -184 156.38 -392.27 267.09 -517.76 363.55 -521.94 443.82 -396.64 513.31 -186.47 566.79 40.14 606.95 197.2 638.19 217.79 660.71 89.08 678.03 -147.44 691.04 -398.24 703.03 -564.66 716.47 -572.9 728.84 -417.97 744.82 -162.21 765.35 82.48 785.89 202.14 810.51 145.59 838.14 -55.85 864.7 -315.58 892.13 -518.31 917.86 -582.38 939.26 -485.68 954.8 -269.03 960.81 -19.4 957.92 174.63 940.91 243.91 907.01 174.33 862.34 -5.47 800.59 -224.92 723.6 -408.9 644.3 -504.97 560.05 -482.16 479.86 -354.33 419.55 -155.53 382.16 56.98 378.5 232.26 415.23 339.04 494 357.42 613.17 296.78 758.1 173.29 918.5 23.26 1073.75 -120.54 1197.32 -241.46 1273.42 -313.34 1285.32 -331.8 1230.2 -300.08 1113.66 -225.51 954.68 -123.53 789.61 0.63 647.83 127.02 563.91 244.7 562.76 357.6 648.25 451.48 807.63 525.91 1004.84 589.07 1197.38 635.74 1337.06 670.16 1386.73 697.79 1331.98 719.13 1183.55 737.95 983.26 754.94 782.24 772.99 638.28 793.53Q638.28 793.53 638.28 793.53" opacity="0.85"></path><path d="M603.23 620.57C560.31 639.9 616.36 647.99 753.74 644.69 940.02 640.63 1126.41 623.92 1269.23 594.21 1339.7 563.24 1321.22 519.66 1221.61 465.55 1062.01 414.77 877.68 360.18 705.38 308.94 573.34 274.84 505.26 258.19 507.1 268.85 575.16 312.15 691.18 391.67 830.86 508.26 975.61 647.68 1097.14 804.75 1179.22 960.83 1215.83 1087.65 1201.21 1170.74 1141.82 1190.14 1044.35 1140.29 923.43 1024.69 793.45 861.77 660.13 692.65 539.64 549.51 438.94 472.97 357.36 490.96 301.17 605.71 268.12 797.44 255.5 1015.14 259.89 1205.08 275.52 1309.61 303.02 1294.6 333.88 1161.47 363.57 948.64 397.42 731.22 425.49 580.31 445.58 555.34 466.31 671.12 477.68 890.92 478.97 1136.87 480.21 1314.34 471.34 1354.92 452.01 1237.58 432.68 1008.92 403.34 762.32 364.46 593.38 325.52 563.03 277.05 678.48 219.86 890.2 163.31 1122.82 99.44 1288.79 30.52 1333.8 -34.23 1246.33 -99.42 1057.44 -160.42 830.37 -209.55 629.29 -246.6 513.69 -265.72 507.61 -264.41 606.72 -239.03 774.82 -187.25 961.33 -116.34 1124.42 -24.62 1219.3 81.03 1229.65 183.36 1157.02 277.74 1019.88 349.87 849.46 383.92 669.64 374.42 515.35 314.98 405.2 210.07 345.24 67.03 339.36 -97.85 377.29 -257.65 452.66 -392.4 546.11 -477.71 642.39 -496.78 740.68 -444.46 822.45 -326.59 883.13 -168.46 929.09 3.27 952.45 151.97 957.02 240.67 948.72 249.91 928.33 171.99 901.23 21.7 868.14 -170.36 834.36 -360.47 803.48 -501.67 771.19 -559.68 744.66 -516.76 725.33 -383.49 706 -195.04 694.32 0.57 688.95 158.28 682.18 241.03 678.86 233.78 675.51 140.22 666.16 -13.57 650.74 -190.29 623.98 -355.42 584.35 -470.5 526.67 -514.78 447.22 -482.83 353.06 -381.75 238.63 -233.44 108.6 -60.88 -19.41 104.12 -143.68 237.39 -248.86 324.87 -316.61 355.87 -339.52 333.37 -307.24 263.01 -224.77 161.46 -97.03 46.3 57.44 -73.5 202.54 -177.36 315.57 -255.45 365.4 -306.75 332.26 -323.96 215.89 -310.09 32.69 -268.54 -173.94 -205.06 -360.79 -127.64 -477.17 -36.86 -488.37 56.34 -388.56 146.31 -201.67 237.52 11.22 319.78 187.55 391.5 264.15 459.96 208.28 517.65 33.13 565.38 -206.94 610.42 -426.13 647.47 -547.32 677.71 -520.86 707.1 -355.8 731.28 -111.18 750.61 117.49 769.94 234.91 783.96 196.36 792.22 22.77 799.63 -219.35 799.69 -433.49 791.09 -541.87 779.82 -509.49 757.94 -349.39 724.54 -121.07 687.9 102.68 639.97 248.43 582.26 277.65 525.78 187.32 465.25 13.15 406.2 -187.29 360.52 -361.8 327.86 -457.85 316.1 -455.74 332.01 -359.1 378 -194.46 456.96 -2.53 562.7 183.22 693.11 322.97 838.26 398.17 978.74 404.14 1104.42 347.61 1197.61 248.47 1242.93 120.05 1233.46 -8.23 1166.1 -117.87 1052.96 -204.68 906.68 -253.41 751.37 -264.99 620.3 -243.93 534.97 -194.62 517.19 -127.04 575.64 -42.3 703.31 46.6 879.34 132.46 1066.97 221.64 1230.01 301.03 1331.03 368.45 1345.74 434.63 1268.68 488.44 1114.79 530.16 922.99 571.11 736.5 601.23 603.23 620.57Q603.23 620.57 603.23 620.57" opacity="0.62"></path><path d="M568.23 179.92C525.01 198.04 569.07 205.83 687.43 204.35 855.55 203.77 1033.95 195.82 1185.29 183.21 1282.76 174.98 1305.66 167.01 1252.91 164.2 1135.39 172.74 976.59 194.12 805.85 233.94 648.21 291.84 530.52 372.75 467.2 477.41 463.57 594.54 515.65 725.58 609.87 860.2 734.2 978.47 865.12 1073.87 984.4 1130.38 1083 1136.99 1145.44 1089.46 1168.11 988.7 1152.33 854.31 1100.73 700.97 1021.99 557.37 920.57 459.31 809.13 425.99 696.97 474.17 584.61 599.22 483.7 782.13 397.66 986.09 323 1160.07 265.32 1264.85 222.88 1268.67 192.06 1169.41 172.67 989.65 161.16 778.46 156.78 603.28 155.63 515.38 154.66 548.87 156.66 697.76 155.73 919.34 150.02 1143.3 144.99 1292.95 133.8 1317.04 115.67 1202.58 97.55 989.87 72.93 755.87 42.67 580.96 13.08 520.81 -20.76 592.16 -56.94 765.33 -90.14 985.55 -122.56 1178.4 -151.07 1286.32 -172.43 1281.51 -185.23 1166.47 -185.82 978.2 -174.78 764.63 -147.72 584.05 -102.82 477.15 -46.53 462.88 25.48 538.29 109.92 676.84 194.14 849.12 278.6 1010.25 354.1 1128.08 406.91 1186.52 433.62 1173.82 425.65 1098.69 379.23 972.91 294.18 820.97 174.17 666.12 33.5 519.79 -117.59 403.49 -260.79 324.02 -373.88 280.79 -443.52 274.25 -456.05 296.1 -408.9 343.5 -305.98 403.62 -161.62 467.07 -4.16 537.22 142.83 599.63 250.12 650.49 292.65 698.61 261.09 732.94 156.63 754.02 -1.7 771.73 -185.43 778.31 -357.14 775.43 -479.09 771.4 -524.98 760.01 -481.76 741.9 -358.92 723.77 -185.2 699.35 0.13 668.09 159.52 635.68 259.58 594.32 283.15 542.44 227.7 487.19 108.45 419.3 -47.65 338.3 -213.67 254.57 -354.54 159.98 -446.28 58.43 -476.99 -36.42 -441.19 -127.18 -348.39 -204.35 -212.2 -255.96 -55.87 -278.33 97.95 -263.06 233.98 -211.53 333.54 -122.22 389.28 -1.83 399.56 127.09 367.71 254.16 303.52 356.2 212.71 407.6 111.7 397.71 12.42 317.9 -82.63 178.69 -159.48 -2.6 -214.12 -193.76 -249.11 -351.2 -259.9 -444.19 -249.72 -446.12 -221.54 -355.42 -178.84 -189.63 -126.92 10.65 -65.17 185.66 -1.06 288.93 61.47 283.56 127.32 165.46 187.82 -36.02 241.12 -263.23 294.86 -443.43 340.31 -520.16 376.8 -463.66 413.21 -292.38 440.7 -60.24 458.82 152.49 476.94 267.02 485.27 244.84 484.15 98.82 482.96 -121.53 472.29 -337.79 452.72 -479.74 433.61 -506.29 406.67 -409.78 373.71 -224.39 344.04 -2.98 312.12 188.6 281.78 301.17 261.26 310.68 249.18 220.69 250.75 62.9 270.33 -124.89 310.01 -290.26 372.92 -396.46 455.5 -425.8 559.32 -372.33 680.31 -252.9 805.52 -87.9 931.41 88.04 1045.97 246.19 1161.15 406.94 1125.47 397.74 968.62 273.2 833.66 166.52 694.89 64.36 574.86 -23.01 498.23 -97.92 477.2 -148.22 521.19 -174.73 626.22 -183.16 778.89 -172.36 955.13 -148.04 1121.47 -112.35 1249.37 -70.81 1311.82 -28.41 1295.24 18.36 1200.52 61.1 1044.7 96.98 862.96 133.76 691.07 161.79 568.23 179.92Q568.23 179.92 568.23 179.92" opacity="0.30"></path><path d="M533.23 6.35C524.91 40.17 775.72 83.86 1092.04 149.71 1267.56 232.01 1185.46 361.96 916.22 547.31 610.33 739.97 434.36 937.65 447.36 1067.94 622.76 1066.31 852.51 912.14 1031.91 647.47 1116.89 434.44 1077.79 399.02 953.09 623.67 769.5 977.76 583.97 1226.89 428.88 1149.69 290.87 809.76 194.89 506.58 130.77 562.52 77.48 944.85 37.78 1269.22 3.96 1167.58 -43.04 618.9 -49.18 1154.07 47.43 1106.88 143.9 726.81 273.71 449.26 405.17 457.42 477.74 712.85 468.27 1000.61 338.96 1137.41 115.22 1070.3 -154.63 847.15 -365.26 590.42 -413.48 361.66 -267.84 234.29 13.24 194.95 257.68 222.25 320.52 275.68 131.96 316.33 -197.41 365.59 -455.08 377.36 -446.76 343.55 -173.9 309.72 157.97 231.91 318.87 118.87 214.81 14.42 -65.77 -100.55 -331.67 -186.49 -438.98 -205.8 -327.38 -134.16 -76.05 42.44 206.83 247.03 396.41 421.64 448.25 444.47 369.53 263.37 217.18 -64.48 59.92 -355.15 -83.38 -398.6 -162.68 -151.43 -181.44 203.84 -158.99 334.17 -104.49 99.26 -42.78 -311.33 29.05 -484.18 86.72 -231.24 120.55 187.49 158.56 130.54 160.31 -279.28 200 246.67 277.39 348.73 412.4 129.98 607.84 -188.88 817.24 -378.35 1018.16 -302.88 1141.21 -45.54 1133.7 263.46 984.23 466.23 736.57 520.04 520.46 441.91 439.19 299.95 571.3 165.92 862 39.18 1161.84 -29.24 1278.95 -47.76 1131.11 -49.82 806.09 -27.47 533.23 6.35Q533.23 6.35 533.23 6.35" opacity="0.32"></path><path d="M498.28 310.48C480.23 341.89 693.59 414.35 991.44 524.64 1205.16 633.58 1208.73 769.92 1018.41 906.2 730.2 994.6 486.44 1017.86 377.96 934.82 426.11 770.49 587.09 549.46 778.8 369.87 954.17 349.54 1047.65 525.67 1054.15 848.15 987.74 1126.94 872.64 1192.54 744.7 970.27 601.5 631.97 479.06 441.61 386.8 593.64 297.21 972.07 236.63 1243.22 205.22 1132.57 173.81 744.41 173.05 466.13 203.41 544.71 236.43 893.66 301.73 1184.97 390.5 1183.78 464 902.56 527.37 560.33 545.36 381.26 490.46 446.32 351.88 681.12 135.34 924.83 -97.53 1076.6 -295.76 1064.24 -376.61 929.09 -300.83 714.31 -85.25 502.41 179.93 337.79 347.23 207.97 325.78 133.52 99.93 92.1 -210.03 66.94 -429.76 45.1 -411.71 13.69 -163.5 -17.71 151.19 -57.2 340.89 -91.28 307.35 -109.12 86.89 -91.82 -181.5 -16.46 -370.16 93.71 -381.82 253.88 -231.92 420.26 17.84 507.03 263.43 474.33 431.42 281.42 498.29 -3.43 463.87 -275.5 370.64 -373.32 236.37 -227 114.84 87.04 28.86 345.27 -39.43 323.5 -67.21 14.36 -65.11 -346.72 -53.53 -437.51 -28.37 -165.68 3.03 222.48 34.44 333.26 70.62 68.55 118.28 -297.78 175.41 -437.76 260.33 -229.59 383.07 131.72 523.48 377.07 696.74 339.7 879.42 93.64 1021.07 -196.13 1100.58 -335.07 1074.88 -273.61 948.06 -52.88 739.71 213.23 522.65 425.99 405.46 557.48 445.29 585.97 656.98 552.02 948.4 470.19 1186.74 391 1232.4 341.28 1054.82 290.23 746.49 279.09 498.28 310.48Q498.28 310.48 498.28 310.48" opacity="0.47"></path><path d="M463.28 723.24C437.1 752.24 614.04 802.04 885.9 861.01 1120.85 906.93 1197.44 935.65 1095.21 920.02 863.09 860.11 604.02 735.53 412.17 559.08 333.21 401.41 377.64 296.33 502.37 318.45 674.74 487.42 829.08 767.36 933.08 1043.54 990.63 1163.35 988.58 1054.96 946.8 760.23 875.24 483.19 794.49 414.87 722.56 638.63 645.47 996.27 589.34 1214.71 560.34 1097.57 531.35 740.7 530.87 453.07 553.27 457.34 584.53 896.13 588.52 901.61 463.43 467.71 314.75 333.63 118.78 396.35 -91.59 581.68 -254.31 811.74 -333.12 973.93 -284.36 1030.1 -122.7 988.28 110.36 872.14 321.23 731.55 402.2 570.08 309.11 434.22 62.96 335.47 -220.07 241.89 -402.89 181.65 -376.71 152.64 -152.74 123.64 141.15 127.26 349.63 166.14 379.11 210.2 228.88 293.32 -10.64 404.53 -240.21 494.89 -353.53 563.3 -321.81 560.46 -164.62 459.63 56.3 255.84 270.01 -12.2 442.83 -235.57 535.79 -332.7 556.42 -228.86 516.11 23.56 444.41 300.1 370.75 412.82 286.66 261.15 226.43 -75.71 196.46 -365.53 169.06 -381.08 170.05 -99.4 199.04 257.48 228.04 374.74 283.66 162.24 365.75 -184.2 450.4 -396.84 563.37 -312.08 697.71 -13.8 821.62 302.2 941.07 436.62 1026.07 347.03 1050.13 101.05 998.8 -144.51 863.98 -275.49 688.27 -259.62 501.72 -112.92 374.72 89.43 373.19 310.57 512.51 482.9 763.33 593.05 1024.12 658.93 1190.86 682.97 1172.56 691.73 975.27 687.43 687.25 694.25 463.28 723.24Q463.28 723.24 463.28 723.24" opacity="0.69"></path><path d="M428.9 743.58C395.21 770.16 536.61 776.38 776.42 756.81 1016.55 729.1 1149.24 663.88 1133.27 559.86 982.46 454.79 756.93 337.98 534.76 248.73 364.91 236.06 290.15 318.69 305.06 510.23 395.76 754.82 521.43 992.2 644.96 1117.55 764.59 1064.28 846.16 842.51 888.26 555.48 908.24 380.15 900.36 425.53 877.43 693.01 847.22 1015.8 815.68 1183.51 789.11 1062.44 762.53 737.37 742.17 449.08 722.25 389.33 695.06 584.8 654.59 889.82 588.54 1108.65 500.38 1128.88 375.05 944.62 214.45 669.2 49.95 416.15 -113.86 292.73 -239.4 312.54 -289.14 450.18 -245.9 631.04 -103.72 789.05 90.76 910.7 292.45 959.05 423.78 948.94 420.27 897.1 272.46 823.56 22.07 753.23 -227.99 674.85 -374.78 618.2 -341.09 591.63 -140.18 565.03 129.95 569.77 346.78 598.02 427.73 618.22 349.29 643.42 161.84 649.22 -67.14 613.29 -242.96 521.19 -315.02 358.59 -274.85 159.63 -139.7 -59.38 41.66 -231.89 240.81 -286.58 408.26 -194.71 525.62 30.63 598.28 278.39 623.87 438.85 621.07 399.2 594.02 160.92 564.63 -159.22 547.23 -364.99 525.73 -315.58 525.87 -32.74 552.45 292.34 579.03 413.52 630.78 251.27 702.41 -61.25 769.94 -318.52 847.68 -348.83 920.78 -154.04 969.64 152.46 987.83 398.08 956.14 479.06 879.74 381.4 750.45 175.53 586.13 -34.22 439.6 -190.93 335.96 -235.41 323.47 -181.78 423.2 -51.57 622.86 109.01 871.33 260.14 1078.27 410.22 1171.83 523.79 1101.14 601.63 894.56 671.32 629.81 717 428.9 743.58Q428.9 743.58 428.9 743.58" opacity="0.70"></path><path d="M393.23 347.05C355.53 371.22 465.25 362.66 669.74 325.97 983.19 267.05 981 174.02 703.04 255.62 500.8 389.45 346.44 583.97 258.92 806.32 237.89 985.43 274.12 1077 342.36 1028.22 438.12 853.36 529.34 604.14 601.31 391.37 669.76 333.43 711.67 469.7 728.26 752.28 740.98 1029.69 734.3 1149.99 710.14 1027.58 685.98 734.62 645.48 453.78 587.19 342.92 525.03 451.88 439.17 705.26 328.85 959 215 1102.14 83.99 1067.55 -49 891.46 -154.48 640.3 -225.4 414.41 -236.04 274.75 -180.19 236.53 -54.48 292.02 122.59 397.78 296.66 537.83 432.45 661.12 477.37 748.06 403.94 816.67 223.29 846.56 -16.02 848.57 -229.84 841.46 -344.46 822.32 -306.76 798.16 -129.61 774 114.24 745.96 331.13 707.51 452.43 659.95 442.74 586.11 322.1 475.64 129.07 346.84 -64.65 183.76 -205.18 6.46 -271.59 -136.55 -247.5 -226.75 -153.71 -220.24 -7.51 -112.27 154.41 84.95 304.34 310.96 443.41 461.92 548.28 474.88 620.6 314.07 673.62 42.64 706.07 -224.5 728.53 -342.85 744.99 -241.38 762.89 34.5 787.05 327.48 811.21 449.99 840.5 334.66 869.6 66.59 892.71 -206.69 904.22 -329.25 893.07 -253.64 862.62 -23.18 797.55 247.71 695.72 447.76 583.03 521.71 455.79 458.81 341.26 311.36 279.14 120.68 283.69 -39.15 375.26 -135.74 540.95 -173.41 756.35 -147 967.09 -83.12 1105.44 10.75 1128.88 106.12 1016.91 184.89 809.35 267.15 570.38 322.89 393.23 347.05Q393.23 347.05 393.23 347.05" opacity="0.56"></path><path d="M358.76 14.53C317 36.27 396.51 50.67 563.08 64.04 771.01 85.21 952.15 120.14 1060.64 182.28 1079.91 268.3 1007.11 393.86 870.21 556.47 693.31 721.83 518.02 883.44 372.15 1000.06 261.11 1033.1 199.3 966.28 178.91 799.86 193.53 591.25 228.66 394.89 268.58 294.13 319.63 344.53 359.87 539.4 382.02 810.78 405.17 1036.2 407.08 1113.64 385.33 992.47 363.59 731.72 319.21 465.66 255.06 318.27 191.89 346.2 112.1 524.27 23.36 761.16 -54.24 970.94 -125.18 1066.82 -173.31 1030.85 -186.45 882.47 -155.86 677.03 -73.32 476.31 44.04 307.99 193.55 209.64 347.8 177.48 462.06 201.4 515.36 259.31 480.15 324.83 355.72 404.22 162.2 465.91 -54.11 501.29 -229.07 535.92 -312.99 542.99 -271.23 521.25 -115.96 499.51 100.13 450 307.91 374.36 454.15 297.98 501.02 196.73 449.24 79.65 315.68 -23.55 146.06 -117.29 -14.94 -174.75 -146.53 -176.12 -216.11 -109.02 -222.23 30.77 -172.81 202.98 -81.49 382.65 29.28 508.42 157.19 521.79 277.12 406.44 378.75 180.74 475.93 -72.08 551.27 -262.56 605.99 -298.94 657.43 -160.01 693.46 101.6 715.21 362.37 736.95 483.63 743.38 410.67 732.96 193.66 719.25 -69.33 683.47 -251.86 623.97 -286.36 560.03 -169.69 475.91 46.16 381.51 277.42 304.26 466.5 244.15 559.11 223.24 554.59 257.86 466.47 353.22 336.08 507.46 204.23 691.11 75.14 880.23 -14.6 1029.73 -62.93 1097.46 -87.39 1062.96 -82.76 925.11 -62.91 725.73 -35.27 514.03 -7.21 358.76 14.53Q358.76 14.53 358.76 14.53" opacity="0.31"></path><path d="M323.23 149.87C280.31 169.2 334.14 208.98 463.48 269.63 640.41 333.16 816.11 421.34 952.61 532.16 1032.79 641.7 1039.51 761.89 981.51 874.43 870.5 951.54 730.71 984.46 586.58 951.39 443.7 856.23 325.1 701 236.3 514.73 169.83 356.82 130.19 262.92 109.25 277.38 102.16 407.42 101.44 625.14 99.12 863.87 100.24 1034.75 92.84 1074.92 73.51 957.58 54.18 728.92 23.83 484 -13.73 315.31 -47.86 275.12 -82.3 368.85 -108.71 549.14 -121.27 762.49 -113.46 932.85 -76.79 1018.63 -17.78 1011.06 73.06 917.08 190.6 772.14 309.4 596.6 426.27 432.87 517.15 302.17 555.03 199.83 530.97 138.89 436.62 109.07 285.95 101.45 99.25 105.98 -85.13 109.85 -221.94 119.06 -279.68 116.6 -236.76 97.27 -103.49 77.95 83.53 42.68 275.33 -2.98 478.16 -63.15 412.81 -98.04 217.03 -10.96 71.71 89.92 -47.53 225.9 -127.29 376.1 -170.8 495.73 -171.25 566.82 -139.15 554.29 -80.36 448.41 -7.56 260.74 66.68 33.22 148.7 -161.25 220.89 -266.02 277.46 -233.34 334.67 -72.16 374.14 168.81 393.46 397.48 412.79 514.9 411.07 478.72 390.32 315.33 370.21 84.06 333.18 -122.68 284.66 -238.59 243.91 -238.91 202.94 -127.69 173.94 50.34 171.63 256.74 199.84 434.9 268.68 555.4 373.77 613.82 515.94 608.65 681.4 561.34 839.38 478.59 972.56 390.23 1050.35 314.19 1053.13 236.86 974.53 183.85 823.96 156.77 639.61 132.57 456.5 130.54 323.23 149.87Q323.23 149.87 323.23 149.87" opacity="0.96"></path><path d="M288.22 588.77C279.89 622.59 519.2 729.8 806.69 857.67 991.75 924.55 969.09 887.02 806.54 675.35 566.81 410.41 356.92 222.14 220.07 337.72 112.26 707.06 52.28 1024.26 18.46 922.48 -15.36 503.76 -19.83 241.82 29.34 359.13 107.57 711.34 264.66 956.72 460.06 955.89 578.28 755.44 565.05 499.98 355.2 312.41 42.91 155.64 -210.1 74.33 -201.77 40.51 71.08 6.68 399.67 23.54 568.96 121.68 514.81 250.64 310.32 453.3 102.5 609.41 -64.21 565.91 -116.74 284.64 -92.16 -92.35 -25.7 -234.46 43.76 13.76 77.59 432.48 111.41 534.26 106.39 230.77 98.56 -113.76 132.59 -204.55 237.92 19.6 448.98 328.87 701.13 584.88 941.51 675.2 1020.45 666.95 875.95 597.7 561.08 554.94 288.22 588.77Q288.22 588.77 288.22 588.77" opacity="0.70"></path><path d="M253.28 798.47C227.1 827.47 394.91 840.7 637.71 803.24 861.87 725.86 959.24 556.18 931.02 333.77 809.13 194.66 651.33 211.9 517.64 456.34 381.16 791.48 293.93 1004.71 264.94 887.57 235.95 530.7 267.93 244.02 354.16 223.06 437.6 447.06 550.16 726.12 634.04 893.68 624.25 927.32 496.13 833.25 250.72 707.66 -13.32 554.02 -192.89 449.03 -166.71 420.04 57.24 391.04 347.41 440.79 553.41 544.18 613.21 619.52 529.1 668.35 383.11 596.71 204.89 391.16 77.46 81.36 17.97 -163.9 -18.18 -164.25 -12.6 110.6 16.39 467.47 45.38 584.73 95.04 383.3 181.45 69.4 291.18 -153.82 463.87 -140.32 680.09 36.78 864.09 297.19 978.95 512.13 940.4 639.76 755.66 727.47 477.24 769.48 253.28 798.47Q253.28 798.47 253.28 798.47" opacity="0.42"></path><path d="M218.66 524.63C180.38 548.8 282.93 508.39 462.34 411.67 671.02 319.83 825.76 203.71 898.54 130.06 907.18 163.54 857.92 328.52 791.29 602.75 707.18 857.52 642.95 974.9 618.79 852.49 594.62 559.53 612.82 281.47 655.06 162.05 679.81 229.26 691.37 416.86 651.06 609.47 546.61 778.72 366.24 857.44 139.85 865.84 -57.27 839.83 -169.61 799.27 -131.33 775.1 46.23 750.94 286.68 745.47 494.41 729.61 626.48 679.34 654.67 562.9 609.42 361.98 507.15 137.7 402.3 -75.52 330.84 -160.43 259.43 -58.73 233.24 209.53 257.4 502.49 281.56 624.9 353.79 517.31 467.07 280.25 580.41 23.74 722.96 -115.6 856.9 -117.42 933.82 -12.1 931.26 141.72 816.91 275.44 626.88 414.03 396.23 500.47 218.66 524.63Q218.66 524.63 218.66 524.63" opacity="0.72"></path><path d="M183.23 99.6C140.3 118.93 189.73 105.5 301.12 79.35 456.07 74.03 603.47 96.26 713.15 179.52 799.24 318.9 839.24 521.9 845.17 740.89 837.56 895.52 818.25 934.91 798.92 817.58 779.59 588.92 762.07 347.4 736.19 182.12 696.76 122.18 626.59 168.53 515.16 270.26 380.15 412.16 212.25 533.08 43.13 607.07 -82.42 672.59 -139.69 694.34 -96.76 675.02 36.5 655.69 220.7 597.11 401.57 498.09 557.48 390.6 656.67 239.51 700.1 72.27 699.58 -54.78 672.67 -121.63 645.6 -75.87 608.13 75.24 592.77 308.92 612.1 537.58 631.43 654.91 683.62 623.36 754.58 482.89 815.15 278.08 872.23 95.58 898.08 -18.46 880 -76.38 801.33 -68.45 659.61 -29.63 492.92 30.01 316.57 80.26 183.28 99.59Q183.23 99.6 183.23 99.6" opacity="0.12"></path><path d="M148.52 38.96C121.95 67.96 271.42 187.38 439.17 434.2 615.5 696.53 693.2 899.67 664.21 782.52 635.21 425.65 505.02 141.43 290.68 77.94 84.93 168.15 -88.04 270.02 -61.47 241.02 162.76 212.03 445.35 57.66 627.29 -70.55 735.38 -45.05 769.29 215.65 798.29 572.52 827.28 689.67 845.86 510.04 775.77 285.71 631.85 76.89 372.76 9.97 148.52 38.96Q148.52 38.96 148.52 38.96" opacity="0.88"></path><path d="M113.23 416.51C128.54 455.16 359.98 823.96 321.33 747.58 282.67 270.65 -11.45 38.65 -26.76 0 296.37 -38.65 631.22 130.65 669.88 607.58 708.53 683.96 436.37 377.85 113.23 416.51Q113.23 416.51 113.23 416.51" opacity="0.91"></path></g></svg>