<?xml version="1.0" encoding="UTF-8" standalone="no"?>
<!-- Created with Inkscape (http://www.inkscape.org/) -->

<svg
   xmlns:dc="http://purl.org/dc/elements/1.1/"
   xmlns:cc="http://creativecommons.org/ns#"
   xmlns:rdf="http://www.w3.org/1999/02/22-rdf-syntax-ns#"
   xmlns:svg="http://www.w3.org/2000/svg"
   xmlns="http://www.w3.org/2000/svg"
   xmlns:sodipodi="http://sodipodi.sourceforge.net/DTD/sodipodi-0.dtd"
   xmlns:inkscape="http://www.inkscape.org/namespaces/inkscape"
   width="120mm"
   height="120mm"
   viewBox="-60 -60 120 120"
   sodipodi:docname="qiboml_bg.svg"
   version="1.1"
   id="svg83635"
   inkscape:export-filename="/home/matteo/Documents/PhD/lorefais/public/qibo_bg.png"
   inkscape:export-xdpi="261"
   inkscape:export-ydpi="261"
   inkscape:version="0.92.5 (2060ec1f9f, 2020-04-08)"
   inkscape:dataloss="true">
  <defs
     id="defs83637">
    <style
       id="style167584">.cls-1{fill:#a3a3a3;}.cls-1,.cls-2{fill-rule:evenodd;}.cls-2{fill:#4e7ccc;}</style>
  </defs>
  <sodipodi:namedview
     pagecolor="#ffffff"
     bordercolor="#666666"
     borderopacity="1.0"
     inkscape:pageopacity="0.0"
     inkscape:pageshadow="2"
     inkscape:zoom="2.1034375"
     inkscape:cx="275.72687"
     inkscape:cy="150.59023"
     inkscape:document-units="mm"
     inkscape:current-layer="Template"
     showgrid="false"
     units="mm"
     showguides="true"
     inkscape:guide-bbox="true"
     inkscape:snap-global="true"
     inkscape:snap-bbox="true"
     inkscape:snap-bbox-midpoints="true"
     inkscape:window-width="1848"
     inkscape:window-height="1129"
     inkscape:window-x="72"
     inkscape:window-y="34"
     inkscape:window-maximized="1"
     inkscape:bbox-paths="true"
     inkscape:bbox-nodes="true"
     inkscape:snap-bbox-edge-midpoints="true"
     inkscape:snap-grids="true"
     id="namedview83625">
    <sodipodi:guide
       orientation="1,0"
       position="226.771653543,226.771653543"
       id="guide2827"
       inkscape:locked="false" />
    <sodipodi:guide
       orientation="0,1"
       position="226.771653543,226.771653543"
       id="guide2829"
       inkscape:locked="false" />
    <inkscape:grid
       type="xygrid"
       id="grid3072"
       empspacing="10"
       visible="true"
       enabled="true"
       snapvisiblegridlinesonly="true"
       units="mm"
       dotted="false"
       spacingx="0.1mm"
       spacingy="0.1mm" />
  </sodipodi:namedview>
  <metadata
     id="metadata2822">
    <rdf:RDF>
      <cc:Work
         rdf:about="">
        <dc:format>image/svg+xml</dc:format>
        <dc:type
           rdf:resource="http://purl.org/dc/dcmitype/StillImage" />
        <dc:title></dc:title>
      </cc:Work>
    </rdf:RDF>
  </metadata>
  <g
     inkscape:label="Layer 1"
     inkscape:groupmode="layer"
     id="Template"
     style="fill:none;stroke:black;stroke-width:0.05">
    <g
       style="fill:none"
       id="g167561"
       transform="matrix(1.226483,0,0,1.0819547,24.519786,24.665495)">
      <g
         id="SVGRepo_bgCarrier"
         style="stroke-width:0" />
      <g
         id="SVGRepo_tracerCarrier"
         style="stroke-linecap:round;stroke-linejoin:round" />
      <g
         id="SVGRepo_iconCarrier">
        <path
           id="path167546"
           d="M 3,4 C 1.89543,4 1,4.89543 1,6 v 12 c 0,1.1046 0.89543,2 2,2 h 18 c 1.1046,0 2,-0.8954 2,-2 V 6 C 23,4.89543 22.1046,4 21,4 Z M 7,15 C 6.44775,15 6,14.5522 6,14 V 13 H 5 C 4.44775,13 4,12.5522 4,12 4,11.4478 4.44775,11 5,11 H 6 V 10 C 6,9.44775 6.44775,9 7,9 7.55225,9 8,9.44775 8,10 v 1 h 1 c 0.55225,0 1,0.4478 1,1 0,0.5522 -0.44775,1 -1,1 H 8 v 1 c 0,0.5522 -0.44775,1 -1,1 z m 10,-4 c 0.5522,0 1,-0.4478 1,-1 0,-0.55225 -0.4478,-1 -1,-1 -0.5522,0 -1,0.44775 -1,1 0,0.5522 0.4478,1 1,1 z m 1,3 c 0,0.5522 -0.4478,1 -1,1 -0.5522,0 -1,-0.4478 -1,-1 0,-0.5522 0.4478,-1 1,-1 0.5522,0 1,0.4478 1,1 z m 0,-2 c 0,0.5522 0.4478,1 1,1 0.5522,0 1,-0.4478 1,-1 0,-0.5522 -0.4478,-1 -1,-1 -0.5522,0 -1,0.4478 -1,1 z m -3,1 c -0.5522,0 -1,-0.4478 -1,-1 0,-0.5522 0.4478,-1 1,-1 0.5522,0 1,0.4478 1,1 0,0.5522 -0.4478,1 -1,1 z"
           inkscape:connector-curvature="0"
           style="clip-rule:evenodd;fill:#a3a3a3;fill-rule:evenodd" />
      </g>
    </g>
    <g
       style="fill:#000000">
      <g
         id="SVGRepo_bgCarrier-0"
         stroke-width="0" />
      <g
         id="SVGRepo_tracerCarrier-9"
         stroke-linejoin="round"
         stroke-linecap="round" />
      <g
         id="SVGRepo_iconCarrier-3">
        <defs
           id="defs167586">
          <style
             id="style167584">.cls-1{fill:#a3a3a3;}.cls-1,.cls-2{fill-rule:evenodd;}.cls-2{fill:#4e7ccc;}</style>
        </defs>
        <title
           id="title167588">Icon_24px_MLEngine_Color</title>
        <g
           id="g167596"
           data-name="Product Icons">
          <g
             id="g167594">
            <polygon
               id="polygon167590"
               points="16.64 15.13 17.38 13.88 20.91 13.88 22 12 19.82 8.25 16.75 8.25 15.69 6.39 14.5 6.39 14.5 5.13 16.44 5.13 17.5 7 19.09 7 16.9 3.25 12.63 3.25 12.63 8.25 14.36 8.25 15.09 9.5 12.63 9.5 12.63 12 14.89 12 15.94 10.13 18.75 10.13 19.47 11.38 16.67 11.38 15.62 13.25 12.63 13.25 12.63 17.63 16.03 17.63 15.31 18.88 12.63 18.88 12.63 20.75 16.9 20.75 20.18 15.13 18.09 15.13 17.36 16.38 14.5 16.38 14.5 15.13 16.64 15.13"
               class="cls-1" />
            <polygon
               id="polygon167592"
               points="7.36 15.13 6.62 13.88 3.09 13.88 2 12 4.18 8.25 7.25 8.25 8.31 6.39 9.5 6.39 9.5 5.13 7.56 5.13 6.5 7 4.91 7 7.1 3.25 11.38 3.25 11.38 8.25 9.64 8.25 8.91 9.5 11.38 9.5 11.38 12 9.11 12 8.06 10.13 5.25 10.13 4.53 11.38 7.33 11.38 8.38 13.25 11.38 13.25 11.38 17.63 7.97 17.63 8.69 18.88 11.38 18.88 11.38 20.75 7.1 20.75 3.82 15.13 5.91 15.13 6.64 16.38 9.5 16.38 9.5 15.13 7.36 15.13"
               class="cls-2" />
          </g>
        </g>
      </g>
    </g>
  </g>
</svg>
