<?xml version="1.0" encoding="UTF-8" standalone="no"?>
<svg
   xmlns:dc="http://purl.org/dc/elements/1.1/"
   xmlns:cc="http://creativecommons.org/ns#"
   xmlns:rdf="http://www.w3.org/1999/02/22-rdf-syntax-ns#"
   xmlns:svg="http://www.w3.org/2000/svg"
   xmlns="http://www.w3.org/2000/svg"
   id="svg83635"
   version="1.1"
   viewBox="-60 -60 120 120"
   height="120mm"
   width="120mm">
  <defs
     id="defs83637">
    <style
       id="style167584">.cls-1{fill:#a3a3a3;}.cls-1,.cls-2{fill-rule:evenodd;}.cls-2{fill:#4e7ccc;}</style>
  </defs>
  <metadata
     id="metadata2822">
    <rdf:RDF>
      <cc:Work
         rdf:about="">
        <dc:format>image/svg+xml</dc:format>
        <dc:type
           rdf:resource="http://purl.org/dc/dcmitype/StillImage" />
        <dc:title></dc:title>
      </cc:Work>
    </rdf:RDF>
  </metadata>
  <g
     style="fill:none;stroke:black;stroke-width:0.05"
     id="Template">
    <g
       transform="matrix(0.03428622,0,0,0.03294044,19.301018,16.908629)"
       id="g167729"
       style="fill:#000000">
      <g
         style="stroke-width:0"
         id="SVGRepo_bgCarrier-6" />
      <g
         style="stroke-linecap:round;stroke-linejoin:round"
         id="SVGRepo_tracerCarrier-0" />
      <g
         id="SVGRepo_iconCarrier-6">
        <path
           style="fill:#a3a3a3"
           d="M 512,960 C 419.2,960 352,760 352,512 352,264 419.2,64 512,64 c 92.8,0 160,200 160,448 0,248 -67.2,448 -160,448 z m 0,-32 C 577.6,928 640,742.4 640,512 640,281.6 577.6,96 512,96 446.4,96 384,281.6 384,512 c 0,230.4 62.4,416 128,416 z"
           id="path167705" />
        <path
           style="fill:#a3a3a3"
           d="M 124.8,736 C 76.8,656 217.6,497.6 432,372.8 646.4,248 852.8,208 899.2,288 945.6,368 806.4,526.4 592,651.2 377.6,776 171.2,816 124.8,736 Z M 152,720 c 33.6,57.6 225.6,17.6 424,-97.6 C 774.4,507.2 905.6,361.6 872,304 838.4,246.4 646.4,286.4 448,401.6 249.6,516.8 118.4,662.4 152,720 Z"
           id="path167707" />
        <path
           style="fill:#a3a3a3"
           d="M 899.2,736 C 852.8,816 644.8,774.4 432,651.2 219.2,528 76.8,368 124.8,288 172.8,208 379.2,249.6 592,372.8 804.8,496 947.2,656 899.2,736 Z M 872,720 C 905.6,662.4 774.4,516.8 576,401.6 377.6,286.4 184,246.4 152,304 120,361.6 249.6,507.2 448,622.4 646.4,737.6 840,777.6 872,720 Z"
           id="path167709" />
        <path
           style="fill:#4e7ccc"
           d="m 512,592 c -44.8,0 -80,-35.2 -80,-80 0,-44.8 35.2,-80 80,-80 44.8,0 80,35.2 80,80 0,44.8 -35.2,80 -80,80 z M 272,312 c -27.2,0 -48,-20.8 -48,-48 0,-27.2 20.8,-48 48,-48 27.2,0 48,20.8 48,48 0,27.2 -20.8,48 -48,48 z m 144,568 c -27.2,0 -48,-20.8 -48,-48 0,-27.2 20.8,-48 48,-48 27.2,0 48,20.8 48,48 0,27.2 -20.8,48 -48,48 z M 864,448 c -27.2,0 -48,-20.8 -48,-48 0,-27.2 20.8,-48 48,-48 27.2,0 48,20.8 48,48 0,27.2 -20.8,48 -48,48 z"
           id="path167711" />
      </g>
    </g>
  </g>
</svg>
