<?xml version="1.0" encoding="UTF-8" standalone="no"?>
<svg
   xmlns:dc="http://purl.org/dc/elements/1.1/"
   xmlns:cc="http://creativecommons.org/ns#"
   xmlns:rdf="http://www.w3.org/1999/02/22-rdf-syntax-ns#"
   xmlns:svg="http://www.w3.org/2000/svg"
   xmlns="http://www.w3.org/2000/svg"
   id="svg83635"
   version="1.1"
   viewBox="-60 -60 120 120"
   height="120mm"
   width="120mm">
  <defs
     id="defs83637" />
  <metadata
     id="metadata2822">
    <rdf:RDF>
      <cc:Work
         rdf:about="">
        <dc:format>image/svg+xml</dc:format>
        <dc:type
           rdf:resource="http://purl.org/dc/dcmitype/StillImage" />
        <dc:title></dc:title>
      </cc:Work>
    </rdf:RDF>
  </metadata>
  <g
     style="fill:none;stroke:black;stroke-width:0.05"
     id="Template">
    <g
       transform="matrix(0.32161621,0,0,0.3286684,28.945863,27.131563)"
       id="g167485"
       style="fill:#000000">
      <g
         style="stroke-width:0"
         id="SVGRepo_bgCarrier-1" />
      <g
         style="stroke-linecap:round;stroke-linejoin:round"
         id="SVGRepo_tracerCarrier-2" />
      <g
         id="SVGRepo_iconCarrier-7"> <g
   id="g167466"> <circle
   style="fill:#4e7ccc"
   cx="32"
   cy="32"
   r="24"
   id="circle167456" />
 <g
   id="g167462"> <path
   style="fill:#a3a3a3"
   d="M 32,0 C 14.328,0 0,14.328 0,32 0,49.672 14.328,64 32,64 49.672,64 64,49.672 64,32 64,14.328 49.672,0 32,0 Z m 0,56 C 18.746,56 8,45.254 8,32 8,18.746 18.746,8 32,8 45.254,8 56,18.746 56,32 56,45.254 45.254,56 32,56 Z"
   id="path167458" />
 <path
   style="fill:#a3a3a3"
   d="M 18,46 40,40 46,18 24,24 Z M 32,28 c 2.211,0 4,1.789 4,4 0,2.211 -1.789,4 -4,4 -2.211,0 -4,-1.789 -4,-4 0,-2.211 1.789,-4 4,-4 z"
   id="path167460" />
 </g>
 <circle
   style="fill:#ffffff"
   cx="32"
   cy="32"
   r="4"
   id="circle167464" />
 </g>
 </g>
    </g>
  </g>
</svg>
