<?xml version="1.0" encoding="UTF-8" standalone="no"?>
<svg
   xmlns:dc="http://purl.org/dc/elements/1.1/"
   xmlns:cc="http://creativecommons.org/ns#"
   xmlns:rdf="http://www.w3.org/1999/02/22-rdf-syntax-ns#"
   xmlns:svg="http://www.w3.org/2000/svg"
   xmlns="http://www.w3.org/2000/svg"
   width="120mm"
   height="120mm"
   viewBox="-60 -60 120 120"
   version="1.1"
   id="svg83635">
  <defs
     id="defs83637">
    <style
       id="style167584">.cls-1{fill:#a3a3a3;}.cls-1,.cls-2{fill-rule:evenodd;}.cls-2{fill:#4e7ccc;}</style>
    <style
       id="style83709">.cls-1{fill:#a3a3a3;}.cls-1,.cls-2{fill-rule:evenodd;}.cls-2{fill:#4e7ccc;}</style>
  </defs>
  <metadata
     id="metadata2822">
    <rdf:RDF>
      <cc:Work
         rdf:about="">
        <dc:format>image/svg+xml</dc:format>
        <dc:type
           rdf:resource="http://purl.org/dc/dcmitype/StillImage" />
        <dc:title></dc:title>
      </cc:Work>
    </rdf:RDF>
  </metadata>
  <g
     transform="matrix(1.0607252,0,0,0.94208596,21.474287,14.85849)"
     id="g83841"
     style="fill:none">
    <g
       style="stroke-width:0"
       id="SVGRepo_bgCarrier" />
    <g
       style="stroke-linecap:round;stroke-linejoin:round"
       id="SVGRepo_tracerCarrier" />
    <g
       id="SVGRepo_iconCarrier">
      <path
         style="clip-rule:evenodd;fill:#a3a3a3;fill-rule:evenodd"
         d="M 3,4 C 1.89543,4 1,4.89543 1,6 v 12 c 0,1.1046 0.89543,2 2,2 h 18 c 1.1046,0 2,-0.8954 2,-2 V 6 C 23,4.89543 22.1046,4 21,4 Z M 7,15 C 6.44775,15 6,14.5522 6,14 V 13 H 5 C 4.44775,13 4,12.5522 4,12 4,11.4478 4.44775,11 5,11 H 6 V 10 C 6,9.44775 6.44775,9 7,9 7.55225,9 8,9.44775 8,10 v 1 h 1 c 0.55225,0 1,0.4478 1,1 0,0.5522 -0.44775,1 -1,1 H 8 v 1 c 0,0.5522 -0.44775,1 -1,1 z m 10,-4 c 0.5522,0 1,-0.4478 1,-1 0,-0.55225 -0.4478,-1 -1,-1 -0.5522,0 -1,0.44775 -1,1 0,0.5522 0.4478,1 1,1 z m 1,3 c 0,0.5522 -0.4478,1 -1,1 -0.5522,0 -1,-0.4478 -1,-1 0,-0.5522 0.4478,-1 1,-1 0.5522,0 1,0.4478 1,1 z m 0,-2 c 0,0.5522 0.4478,1 1,1 0.5522,0 1,-0.4478 1,-1 0,-0.5522 -0.4478,-1 -1,-1 -0.5522,0 -1,0.4478 -1,1 z m -3,1 c -0.5522,0 -1,-0.4478 -1,-1 0,-0.5522 0.4478,-1 1,-1 0.5522,0 1,0.4478 1,1 0,0.5522 -0.4478,1 -1,1 z"
         id="path83826" />
    </g>
  </g>
</svg>
